<svg width="100" height="100" viewBox="0 0 100 100" fill="none" xmlns="http://www.w3.org/2000/svg">
<rect width="100" height="100" rx="8" fill="#F7FFE6"/>
<path d="M30.168 68.6663C29.2346 68.6663 28.418 68.3163 27.718 67.6163C27.018 66.9163 26.668 66.0997 26.668 65.1663V34.833C26.668 33.8997 27.018 33.083 27.718 32.383C28.418 31.683 29.2346 31.333 30.168 31.333H69.8346C70.768 31.333 71.5846 31.683 72.2846 32.383C72.9846 33.083 73.3346 33.8997 73.3346 34.833V65.1663C73.3346 66.0997 72.9846 66.9163 72.2846 67.6163C71.5846 68.3163 70.768 68.6663 69.8346 68.6663H30.168ZM30.168 65.1663H55.8346V34.833H30.168V65.1663ZM62.8346 41.833H66.3346V38.333H62.8346V41.833ZM64.5846 51.7497C65.0902 51.7497 65.5082 51.5747 65.8388 51.2247C66.1694 50.8747 66.3346 50.4663 66.3346 49.9997C66.3346 49.4941 66.1694 49.0761 65.8388 48.7455C65.5082 48.415 65.0902 48.2497 64.5846 48.2497C64.118 48.2497 63.7096 48.415 63.3596 48.7455C63.0096 49.0761 62.8346 49.4941 62.8346 49.9997C62.8346 50.4663 63.0096 50.8747 63.3596 51.2247C63.7096 51.5747 64.118 51.7497 64.5846 51.7497ZM64.5846 61.6663C65.0902 61.6663 65.5082 61.4913 65.8388 61.1413C66.1694 60.7913 66.3346 60.383 66.3346 59.9163C66.3346 59.4108 66.1694 58.9927 65.8388 58.6622C65.5082 58.3316 65.0902 58.1663 64.5846 58.1663C64.118 58.1663 63.7096 58.3316 63.3596 58.6622C63.0096 58.9927 62.8346 59.4108 62.8346 59.9163C62.8346 60.383 63.0096 60.7913 63.3596 61.1413C63.7096 61.4913 64.118 61.6663 64.5846 61.6663ZM45.918 58.7497C45.0624 58.7497 44.3235 58.5941 43.7013 58.283C43.0791 57.9719 42.5346 57.6608 42.068 57.3497C41.7569 57.1552 41.436 56.9511 41.1055 56.7372C40.7749 56.5233 40.4346 56.4163 40.0846 56.4163C39.6569 56.4163 39.2582 56.5427 38.8888 56.7955C38.5194 57.0483 38.1791 57.3108 37.868 57.583L35.3596 55.133C35.8263 54.6663 36.468 54.1802 37.2846 53.6747C38.1013 53.1691 39.0346 52.9163 40.0846 52.9163C40.9402 52.9163 41.6888 53.0816 42.3305 53.4122C42.9721 53.7427 43.5263 54.0636 43.993 54.3747C44.4207 54.6469 44.7707 54.8608 45.043 55.0163C45.3152 55.1719 45.6069 55.2497 45.918 55.2497C46.3457 55.2497 46.7444 55.1233 47.1138 54.8705C47.4832 54.6177 47.8235 54.3552 48.1346 54.083L50.643 56.533C50.1763 56.9997 49.5346 57.4858 48.718 57.9913C47.9013 58.4969 46.968 58.7497 45.918 58.7497ZM45.918 47.083C45.0624 47.083 44.3235 46.9275 43.7013 46.6163C43.0791 46.3052 42.5346 45.9941 42.068 45.683C41.7569 45.4886 41.436 45.2844 41.1055 45.0705C40.7749 44.8566 40.4346 44.7497 40.0846 44.7497C39.6569 44.7497 39.2582 44.8761 38.8888 45.1288C38.5194 45.3816 38.1791 45.6441 37.868 45.9163L35.3596 43.4663C35.8263 42.9997 36.468 42.5136 37.2846 42.008C38.1013 41.5025 39.0346 41.2497 40.0846 41.2497C40.9402 41.2497 41.6888 41.415 42.3305 41.7455C42.9721 42.0761 43.5263 42.3969 43.993 42.708C44.4207 42.9802 44.7707 43.1941 45.043 43.3497C45.3152 43.5052 45.6069 43.583 45.918 43.583C46.3457 43.583 46.7444 43.4566 47.1138 43.2038C47.4832 42.9511 47.8235 42.6886 48.1346 42.4163L50.643 44.8663C50.1763 45.333 49.5346 45.8191 48.718 46.3247C47.9013 46.8302 46.968 47.083 45.918 47.083Z" fill="#8BA352"/>
</svg>
