<svg width="100" height="100" viewBox="0 0 100 100" fill="none" xmlns="http://www.w3.org/2000/svg">
<rect width="100" height="100" rx="8" fill="#F7FFE6"/>
<path d="M29 71V67.5H33.6667V33.0834C33.6667 32.1209 34.0094 31.2969 34.6948 30.6115C35.3802 29.9261 36.2042 29.5834 37.1667 29.5834H62.8333C63.7958 29.5834 64.6198 29.9261 65.3052 30.6115C65.9906 31.2969 66.3333 32.1209 66.3333 33.0834V67.5H71V71H29ZM57 67.5H62.8333V33.0834H52.6833V32.2667C53.9278 32.4612 54.9583 33.0425 55.775 34.0109C56.5917 34.9792 57 36.1089 57 37.4V67.5ZM47.6769 51.75C48.1756 51.75 48.5903 51.5814 48.9208 51.244C49.2514 50.9066 49.4167 50.4885 49.4167 49.9898C49.4167 49.4911 49.248 49.0764 48.9106 48.7459C48.5732 48.4153 48.1552 48.25 47.6565 48.25C47.1577 48.25 46.7431 48.4187 46.4125 48.7561C46.0819 49.0935 45.9167 49.5115 45.9167 50.0102C45.9167 50.509 46.0853 50.9237 46.4227 51.2542C46.7601 51.5848 47.1782 51.75 47.6769 51.75Z" fill="#8BA352"/>
</svg>
