<svg width="100" height="100" viewBox="0 0 100 100" fill="none" xmlns="http://www.w3.org/2000/svg">
<rect width="100" height="100" rx="8" fill="#F7FFE6"/>
<path d="M51.75 51.75H71V67.5C71 68.4625 70.6573 69.2865 69.9719 69.9719C69.2865 70.6573 68.4625 71 67.5 71H51.75V51.75ZM51.75 48.25V29H67.5C68.4625 29 69.2865 29.3427 69.9719 30.0281C70.6573 30.7135 71 31.5375 71 32.5V48.25H51.75ZM48.25 48.25H29V32.5C29 31.5375 29.3427 30.7135 30.0281 30.0281C30.7135 29.3427 31.5375 29 32.5 29H48.25V48.25ZM48.25 51.75V71H32.5C31.5375 71 30.7135 70.6573 30.0281 69.9719C29.3427 69.2865 29 68.4625 29 67.5V51.75H48.25Z" fill="#8BA352"/>
</svg>
