<svg width="100" height="100" viewBox="0 0 100 100" fill="none" xmlns="http://www.w3.org/2000/svg">
<rect width="100" height="100" rx="8" fill="#F7FFE6"/>
<path d="M34.832 73.3337C33.8695 73.3337 33.0456 72.991 32.3602 72.3055C31.6747 71.6201 31.332 70.7962 31.332 69.8337V30.167C31.332 29.2045 31.6747 28.3805 32.3602 27.6951C33.0456 27.0097 33.8695 26.667 34.832 26.667H65.1654C66.1279 26.667 66.9518 27.0097 67.6372 27.6951C68.3227 28.3805 68.6654 29.2045 68.6654 30.167V69.8337C68.6654 70.7962 68.3227 71.6201 67.6372 72.3055C66.9518 72.991 66.1279 73.3337 65.1654 73.3337H34.832ZM49.9987 66.392C53.1296 66.392 55.7985 65.2886 58.0052 63.0819C60.212 60.8751 61.3154 58.2063 61.3154 55.0753C61.3154 51.9444 60.212 49.2755 58.0052 47.0688C55.7985 44.862 53.1296 43.7587 49.9987 43.7587C46.8678 43.7587 44.1989 44.862 41.9922 47.0688C39.7854 49.2755 38.682 51.9444 38.682 55.0753C38.682 58.2063 39.7854 60.8751 41.9922 63.0819C44.1989 65.2886 46.8678 66.392 49.9987 66.392ZM49.9987 61.492C49.1167 61.492 48.2601 61.3364 47.4289 61.0253C46.5978 60.7142 45.8599 60.2475 45.2154 59.6253L54.4904 50.3503C55.1515 50.9337 55.6376 51.6445 55.9487 52.483C56.2598 53.3214 56.4154 54.1855 56.4154 55.0753C56.4154 56.8577 55.7915 58.3728 54.5439 59.6205C53.2961 60.8682 51.7811 61.492 49.9987 61.492ZM39.7422 36.7003C40.241 36.7003 40.6556 36.5316 40.9862 36.1943C41.3168 35.8569 41.482 35.4388 41.482 34.9401C41.482 34.4414 41.3134 34.0267 40.976 33.6962C40.6386 33.3656 40.2205 33.2003 39.7218 33.2003C39.2231 33.2003 38.8084 33.369 38.4779 33.7064C38.1473 34.0438 37.982 34.4618 37.982 34.9605C37.982 35.4593 38.1507 35.8739 38.4881 36.2045C38.8255 36.535 39.2435 36.7003 39.7422 36.7003ZM47.5589 36.7003C48.0577 36.7003 48.4723 36.5316 48.8029 36.1943C49.1334 35.8569 49.2987 35.4388 49.2987 34.9401C49.2987 34.4414 49.13 34.0267 48.7927 33.6962C48.4553 33.3656 48.0372 33.2003 47.5385 33.2003C47.0397 33.2003 46.6251 33.369 46.2945 33.7064C45.964 34.0438 45.7987 34.4618 45.7987 34.9605C45.7987 35.4593 45.9674 35.8739 46.3047 36.2045C46.6421 36.535 47.0602 36.7003 47.5589 36.7003Z" fill="#8BA352"/>
</svg>
