<svg width="60" height="122" viewBox="0 0 60 122" fill="none" xmlns="http://www.w3.org/2000/svg">
<path d="M16.1551 12.1027C17.1799 25.7768 23.0775 38.6292 32.7756 48.3234C42.4738 58.0176 55.3286 63.9099 69.0031 64.9291C69.2017 64.9384 69.4001 64.9061 69.5855 64.8343C69.771 64.7625 69.9394 64.6528 70.08 64.5122C70.2206 64.3715 70.3303 64.2031 70.4021 64.0177C70.4739 63.8323 70.5062 63.6339 70.4969 63.4353C69.4858 49.7542 63.5932 36.8917 53.8929 27.1913C44.1925 17.491 31.33 11.5984 17.6489 10.5872C17.4484 10.5777 17.2481 10.6106 17.0611 10.6837C16.8741 10.7568 16.7046 10.8685 16.5636 11.0114C16.4227 11.1544 16.3134 11.3255 16.243 11.5136C16.1727 11.7016 16.1427 11.9023 16.1551 12.1027Z" fill="#C6E9FF"/>
<path d="M30.8152 106.472C30.8028 106.675 30.8334 106.879 30.9048 107.07C30.9763 107.26 31.0872 107.434 31.2301 107.579C31.3731 107.724 31.5449 107.837 31.7346 107.911C31.9242 107.985 32.1273 108.019 32.3307 108.009C42.1696 107.172 51.3961 102.885 58.3804 95.9047C65.3647 88.9244 69.6573 79.7003 70.4999 69.8618C70.5091 69.6575 70.4757 69.4535 70.4017 69.2628C70.3277 69.0722 70.2148 68.899 70.0702 68.7544C69.9256 68.6098 69.7524 68.4969 69.5617 68.4229C69.3711 68.3489 69.1671 68.3154 68.9628 68.3247C59.1292 69.1708 49.9102 73.4616 42.9312 80.4407C35.9521 87.4197 31.6613 96.6387 30.8152 106.472Z" fill="#C6E9FF"/>
</svg>
