<svg width="81" height="80" viewBox="0 0 81 80" fill="none" xmlns="http://www.w3.org/2000/svg">
<rect x="0.666687" width="80" height="80" rx="8" fill="#F7FFE6"/>
<mask id="mask0_767_182" style="mask-type:alpha" maskUnits="userSpaceOnUse" x="12" y="12" width="57" height="56">
<rect x="12.6667" y="12" width="56" height="56" fill="#D9D9D9"/>
</mask>
<g mask="url(#mask0_767_182)">
<path d="M24.3334 63.3332C23.05 63.3332 21.9514 62.8762 21.0375 61.9623C20.1236 61.0484 19.6667 59.9498 19.6667 58.6665V25.9998C19.6667 24.7165 20.1236 23.6179 21.0375 22.704C21.9514 21.7901 23.05 21.3332 24.3334 21.3332H26.6667V16.6665H31.3334V21.3332H50V16.6665H54.6667V21.3332H57C58.2834 21.3332 59.382 21.7901 60.2959 22.704C61.2097 23.6179 61.6667 24.7165 61.6667 25.9998V39.9998H57V35.3332H24.3334V58.6665H40.6667V63.3332H24.3334ZM57 67.9998C54.1611 67.9998 51.682 67.1151 49.5625 65.3457C47.4431 63.5762 46.1111 61.3498 45.5667 58.6665H49.1834C49.6889 60.3776 50.6514 61.7776 52.0709 62.8665C53.4903 63.9554 55.1334 64.4998 57 64.4998C59.2556 64.4998 61.1806 63.7026 62.775 62.1082C64.3695 60.5137 65.1667 58.5887 65.1667 56.3332C65.1667 54.0776 64.3695 52.1526 62.775 50.5582C61.1806 48.9637 59.2556 48.1665 57 48.1665C55.8722 48.1665 54.8222 48.3707 53.85 48.779C52.8778 49.1873 52.0222 49.7609 51.2834 50.4998H54.6667V53.9998H45.3334V44.6665H48.8334V47.9915C49.8834 46.9804 51.1084 46.1734 52.5084 45.5707C53.9084 44.9679 55.4056 44.6665 57 44.6665C60.2278 44.6665 62.9792 45.804 65.2542 48.079C67.5292 50.354 68.6667 53.1054 68.6667 56.3332C68.6667 59.5609 67.5292 62.3123 65.2542 64.5873C62.9792 66.8623 60.2278 67.9998 57 67.9998Z" fill="#8BA352"/>
</g>
</svg>
