<svg width="80" height="80" viewBox="0 0 80 80" fill="none" xmlns="http://www.w3.org/2000/svg">
<rect width="80" height="80" rx="8" fill="#F7FFE6"/>
<path d="M51.2875 39.1249H51.9875C51.55 32.4749 46.3 27.2249 39.65 26.7874V27.4874C39.65 28.0124 39.3 28.3624 38.775 28.3624C38.25 28.3624 37.9 28.0124 37.9 27.4874V26.7874C31.25 27.2249 26 32.4749 25.5625 39.1249H26.2625C26.7875 39.1249 27.1375 39.4749 27.1375 39.9999C27.1375 40.5249 26.7875 40.8749 26.2625 40.8749H25.5625C26 47.5249 31.25 52.7749 37.9 53.2124V52.5124C37.9 51.9874 38.25 51.6374 38.775 51.6374C39.3 51.6374 39.65 51.9874 39.65 52.5124V53.2124C46.3 52.7749 51.55 47.5249 51.9875 40.8749H51.2875C50.7625 40.8749 50.4125 40.5249 50.4125 39.9999C50.4125 39.4749 50.7625 39.1249 51.2875 39.1249ZM38.775 42.4499C37.725 42.4499 36.85 41.7499 36.5 40.8749H32.125C31.6 40.8749 31.25 40.5249 31.25 39.9999C31.25 39.4749 31.6 39.1249 32.125 39.1249H36.5C36.7625 38.4249 37.2875 37.9874 37.9 37.7249V30.8124C37.9 30.2874 38.25 29.9374 38.775 29.9374C39.3 29.9374 39.65 30.2874 39.65 30.8124V37.7249C40.6125 38.0749 41.225 38.9499 41.225 39.9999C41.225 41.3999 40.0875 42.4499 38.775 42.4499Z" fill="#8BA352"/>
<path d="M60.5625 37.1124C60.2125 36.7624 59.6875 36.7624 59.3375 37.1124L58.2 38.2499C57.325 28.2749 48.925 20.3999 38.775 20.3999C27.925 20.3999 19.175 29.2374 19.175 39.9999C19.175 50.7624 27.925 59.5999 38.775 59.5999C46.825 59.5999 53.9125 54.7874 56.8875 47.3499C57.0625 46.9124 56.8875 46.3874 56.3625 46.2124C55.925 46.0374 55.4 46.2124 55.225 46.7374C52.5125 53.4749 46.0375 57.8499 38.6875 57.8499C28.8875 57.8499 20.8375 49.8874 20.8375 39.9999C20.8375 30.1999 28.8 22.1499 38.6875 22.1499C47.7875 22.1499 55.4 29.0624 56.3625 37.8999L55.4875 37.0249C55.1375 36.6749 54.6125 36.6749 54.2625 37.0249C53.9125 37.3749 53.9125 37.8999 54.2625 38.2499L56.5375 40.5249C56.8 40.7874 57.0625 40.8749 57.4125 40.8749C57.7625 40.8749 58.025 40.7874 58.2875 40.5249L60.5625 38.2499C60.9125 37.9874 60.9125 37.3749 60.5625 37.1124Z" fill="#8BA352"/>
</svg>
