<svg width="81" height="80" viewBox="0 0 81 80" fill="none" xmlns="http://www.w3.org/2000/svg">
<rect x="0.333252" width="80" height="80" rx="8" fill="#F7FFE6"/>
<g clip-path="url(#clip0_767_186)">
<path fill-rule="evenodd" clip-rule="evenodd" d="M52.2828 50.1719C52.2828 50.6436 52.2828 51.0378 52.2828 51.485C53.7429 51.485 55.1777 51.4715 56.6121 51.4892C57.7383 51.5031 58.5623 52.0377 59.0199 53.0663C59.1164 53.2833 59.1179 53.6162 59.022 53.8333C58.5673 54.863 57.7434 55.3989 56.6183 55.417C55.3612 55.4371 54.1035 55.4218 52.8461 55.4219C52.6683 55.4219 52.4905 55.4219 52.2852 55.4219C52.2852 55.8643 52.2852 56.2585 52.2852 56.7345C52.5436 56.7345 52.8085 56.7345 53.0733 56.7345C53.9115 56.7345 54.7499 56.7331 55.5881 56.7355C55.7701 56.7361 55.9545 56.7336 56.1334 56.7606C57.1834 56.9187 58.3196 57.9749 58.2744 58.742C58.2226 59.6225 57.0045 60.6183 55.8921 60.6643C55.2916 60.6891 54.6895 60.6713 54.0882 60.672C53.5059 60.6725 52.9238 60.672 52.2993 60.672C52.2993 61.0997 52.2993 61.5063 52.2993 61.985C53.1572 61.985 54.0255 61.9664 54.8924 61.9896C56.0176 62.0198 56.8349 62.559 57.2816 63.5942C57.3698 63.7988 57.3709 64.1077 57.2816 64.3113C56.8103 65.3878 55.9542 65.9181 54.783 65.9202C51.9038 65.9254 49.0244 65.9221 46.1448 65.9221C43.3385 65.9221 40.532 65.9225 37.7255 65.9214C37.4887 65.9212 37.2502 65.9269 37.0155 65.9012C35.7842 65.7678 35.6317 65.5954 35.6317 64.3746C35.6317 59.2902 35.6365 54.2055 35.6222 49.1213C35.6212 48.7279 35.7351 48.5038 36.0719 48.2952C37.0778 47.6723 38.2007 47.1463 39.0071 46.3185C39.8113 45.4931 40.2381 44.3129 40.9226 43.354C41.5807 42.4324 41.8331 41.4715 41.7751 40.3448C41.6998 38.8908 41.7529 37.43 41.7585 35.9722C41.7615 35.1722 42.1432 34.8402 42.9262 34.9359C45.5706 35.259 46.9353 36.7474 46.9912 39.4589C47.0333 41.4991 47.0043 43.5407 47.0066 45.5818C47.0069 45.7785 47.0068 45.975 47.0068 46.2346C47.2432 46.2346 47.4373 46.2346 47.6315 46.2346C50.6019 46.2346 53.5723 46.2329 56.5429 46.2358C57.6693 46.2368 58.5146 46.7365 58.9895 47.7545C59.1077 48.0079 59.1009 48.413 58.9808 48.6678C58.5116 49.663 57.6806 50.1615 56.5782 50.1695C55.1599 50.1796 53.7416 50.1719 52.2828 50.1719Z" fill="#8BA352"/>
<path fill-rule="evenodd" clip-rule="evenodd" d="M34.3179 56.7473C34.3179 59.6985 34.3188 62.6496 34.3173 65.6008C34.3167 66.7607 33.85 67.2329 32.702 67.2336C29.9877 67.2355 27.2733 67.2355 24.559 67.2337C23.4174 67.233 22.9435 66.7537 22.9434 65.6008C22.9425 59.6801 22.9422 53.7595 22.9435 47.8391C22.9438 46.7185 23.4216 46.2359 24.5318 46.235C27.2644 46.2329 29.9969 46.2329 32.7294 46.235C33.8397 46.2359 34.3166 46.7181 34.3172 47.8391C34.3192 50.8085 34.3179 53.7778 34.3179 56.7473ZM27.3221 63.7668C27.2797 64.4846 27.8494 65.1186 28.5667 65.1518C29.2838 65.1851 29.9095 64.6103 29.9389 63.8911C29.9673 63.1964 29.4174 62.5856 28.7192 62.5361C28.004 62.4855 27.3644 63.0488 27.3221 63.7668Z" fill="#8BA352"/>
<path fill-rule="evenodd" clip-rule="evenodd" d="M63.714 26.7132C63.714 27.4049 63.736 28.0977 63.7045 28.7879C63.6892 29.1204 63.7952 29.3191 64.0589 29.511C65.1183 30.283 66.1573 31.0829 67.2126 31.8603C67.7109 32.2275 68.0875 32.6549 67.9678 33.3192C67.8453 33.9987 67.3599 34.2947 66.7264 34.4608C65.4604 34.7931 64.2074 35.1743 62.9427 35.5117C62.6086 35.6008 62.431 35.7586 62.322 36.0946C61.9076 37.3745 61.4508 38.6405 61.0283 39.9177C60.8416 40.4821 60.522 40.8886 59.9117 40.9795C59.2743 41.0743 58.8405 40.7582 58.5033 40.2443C57.7847 39.1482 57.0416 38.0684 56.3336 36.9657C56.1178 36.6292 55.8956 36.4706 55.4681 36.4743C54.1393 36.4852 52.8097 36.4241 51.4804 36.4161C50.8808 36.4124 50.4046 36.2262 50.1328 35.6727C49.847 35.0915 50.0302 34.5892 50.4148 34.1118C51.2602 33.0625 52.0829 31.9949 52.9309 30.948C53.1369 30.6937 53.1808 30.4723 53.0781 30.1554C52.6637 28.8756 52.2896 27.5826 51.8809 26.3007C51.6947 25.716 51.705 25.1797 52.1732 24.7392C52.6396 24.3003 53.1698 24.3143 53.7471 24.5372C55.0189 25.028 56.2983 25.5004 57.5863 25.9467C57.7831 26.0148 58.0926 25.9784 58.264 25.8627C59.3958 25.0996 60.5089 24.3081 61.6178 23.5119C62.1155 23.1545 62.629 23.001 63.1946 23.3088C63.7388 23.6052 63.893 24.0981 63.8704 24.6933C63.8448 25.3655 63.8645 26.0396 63.8645 26.7129C63.8141 26.7132 63.764 26.7132 63.714 26.7132Z" fill="#8BA352"/>
<path fill-rule="evenodd" clip-rule="evenodd" d="M45.1012 29.9372C44.9645 29.8861 44.6827 29.8113 44.4295 29.6808C43.2491 29.072 42.0702 28.4596 40.9056 27.8215C40.5822 27.6442 40.336 27.6305 40.0039 27.8134C38.8408 28.454 37.6522 29.0484 36.4826 29.6771C35.9439 29.9669 35.4134 30.0676 34.8939 29.6834C34.3841 29.3068 34.2779 28.7941 34.397 28.1775C34.6416 26.9092 34.824 25.6289 35.0699 24.3608C35.1557 23.9188 35.0632 23.6218 34.7298 23.3125C33.7821 22.4328 32.8725 21.5122 31.9407 20.6152C31.5208 20.2108 31.2559 19.7629 31.4391 19.1582C31.6262 18.54 32.0769 18.2731 32.6911 18.1883C34.0431 18.0013 35.3905 17.7794 36.7442 17.6057C37.0833 17.5623 37.2469 17.4142 37.3853 17.1263C37.953 15.9459 38.5534 14.7813 39.1154 13.5983C39.394 13.0118 39.7662 12.5682 40.4578 12.5743C41.1223 12.5798 41.4902 13.0061 41.7609 13.5741C42.3322 14.7727 42.9169 15.9655 43.5319 17.1421C43.6348 17.3387 43.9024 17.5338 44.1209 17.5713C45.502 17.8083 46.8897 18.0058 48.2769 18.2049C48.8544 18.2877 49.2569 18.5697 49.4394 19.1332C49.6253 19.708 49.4106 20.1626 49.0037 20.5588C48.0376 21.4989 47.0903 22.4595 46.0976 23.3708C45.7724 23.6694 45.7528 23.9603 45.8199 24.335C46.0603 25.6785 46.2963 27.0228 46.5207 28.369C46.6586 29.1979 46.0626 29.9211 45.1012 29.9372Z" fill="#8BA352"/>
<path fill-rule="evenodd" clip-rule="evenodd" d="M17.0252 26.6302C17.0252 25.975 17.0437 25.3191 17.0196 24.665C16.9976 24.0655 17.1725 23.5813 17.7205 23.2959C18.268 23.0107 18.7691 23.1532 19.2509 23.4976C20.3615 24.2913 21.4735 25.0843 22.6074 25.8443C22.792 25.9682 23.1216 26.0124 23.3314 25.9399C24.6198 25.4949 25.8968 25.0156 27.1696 24.5267C27.727 24.3127 28.2432 24.3088 28.698 24.7226C29.1736 25.1552 29.2013 25.6921 29.0167 26.2781C28.6125 27.5613 28.2383 28.8541 27.8195 30.1325C27.7081 30.4726 27.7612 30.7038 27.9786 30.972C28.8271 32.0187 29.6494 33.0864 30.4933 34.1369C30.8655 34.5999 31.0313 35.0932 30.7676 35.6526C30.5061 36.2075 30.0362 36.4119 29.4329 36.4161C28.0854 36.4257 26.738 36.4765 25.3905 36.4801C25.0247 36.481 24.7975 36.5857 24.5959 36.9C23.879 38.0184 23.1254 39.1133 22.3985 40.2253C22.0636 40.7374 21.6407 41.0672 20.9999 40.982C20.3602 40.8968 20.0429 40.4708 19.8512 39.8875C19.4314 38.6094 18.978 37.3424 18.556 36.065C18.4544 35.7574 18.2928 35.5986 17.9709 35.514C16.6525 35.1666 15.3443 34.7817 14.0285 34.4239C13.4275 34.2604 13.0162 33.9162 12.9168 33.2901C12.8241 32.7043 13.1159 32.2843 13.5735 31.9456C14.6711 31.1333 15.7707 30.323 16.8443 29.48C17.0207 29.3416 17.1495 29.0448 17.1621 28.8137C17.2025 28.0878 17.177 27.3583 17.177 26.6303C17.1264 26.6302 17.0758 26.6302 17.0252 26.6302Z" fill="#8BA352"/>
</g>
<defs>
<clipPath id="clip0_767_186">
<rect width="56" height="56" fill="white" transform="translate(12.3333 12)"/>
</clipPath>
</defs>
</svg>
