<svg width="81" height="80" viewBox="0 0 81 80" fill="none" xmlns="http://www.w3.org/2000/svg">
<rect x="0.25" width="80" height="80" rx="8" fill="#F7FFE6"/>
<g clip-path="url(#clip0_767_166)">
<path fill-rule="evenodd" clip-rule="evenodd" d="M33.9639 14.0022C36.6422 14.0022 39.3206 14.0003 41.9987 14.0029C43.8335 14.0046 44.906 15.0654 44.9084 16.8903C44.9131 20.3677 44.914 23.8451 44.9079 27.3225C44.9046 29.0958 43.815 30.169 42.0277 30.1827C41.9845 30.183 41.9404 30.1886 41.8983 30.182C39.4554 29.8024 37.4412 30.5911 35.5851 32.2036C34.059 33.5294 32.3312 34.6249 30.6734 35.7949C30.4402 35.9595 30.0311 36.1066 29.823 36.0086C29.6242 35.9147 29.4932 35.4928 29.485 35.2107C29.4496 33.9805 29.4747 32.7488 29.4681 31.5176C29.4629 30.5382 29.1134 30.1894 28.1437 30.1837C27.3229 30.1787 26.5018 30.1953 25.6815 30.179C24.0883 30.1476 23.0009 29.0617 22.9963 27.4724C22.9855 23.8871 22.9857 20.3017 22.9963 16.7163C23.0009 15.0894 24.0968 14.0098 25.7351 14.0046C28.4778 13.9958 31.221 14.0024 33.9639 14.0022Z" fill="#8BA352"/>
<path fill-rule="evenodd" clip-rule="evenodd" d="M32.7126 65.2884C25.8972 65.2884 19.0831 65.2884 12.271 65.2884C11.8795 61.0009 17.0184 56.1497 22.0435 55.9998C28.6311 55.8036 32.5768 61.2028 32.7126 65.2884Z" fill="#8BA352"/>
<path fill-rule="evenodd" clip-rule="evenodd" d="M47.793 65.2898C47.8875 61.3231 51.7511 55.907 58.2551 55.9972C63.3908 56.0686 68.5666 60.8569 68.2335 65.2898C61.4218 65.2898 54.6079 65.2898 47.793 65.2898Z" fill="#8BA352"/>
<path fill-rule="evenodd" clip-rule="evenodd" d="M37.0433 33.7633C37.6521 33.3181 38.2503 32.8573 38.8762 32.4374C39.0562 32.3166 39.3144 32.2701 39.5384 32.2652C40.4452 32.2461 41.353 32.2725 42.2599 32.2528C44.9476 32.1942 46.9455 30.1874 46.9784 27.4982C47.0002 25.7056 46.9829 23.9126 46.9831 22.1196C46.9831 21.8863 46.9831 21.6529 46.9831 21.383C48.8488 21.383 50.6563 21.3333 52.4589 21.4049C53.2914 21.4379 53.9868 22.2956 53.993 23.1607C54.0149 26.271 54.0198 29.3819 53.9909 32.492C53.9811 33.5175 53.1042 34.2869 52.0069 34.3248C51.2734 34.35 50.5381 34.3211 49.804 34.3358C49.0624 34.3505 48.6894 34.7173 48.6792 35.4569C48.6647 36.5151 48.6823 37.574 48.6673 38.6322C48.6647 38.8083 48.5983 39.1072 48.5047 39.1314C48.3375 39.1748 48.0926 39.1009 47.9403 38.9919C45.9568 37.5714 43.9929 36.1234 41.9993 34.7178C41.6888 34.499 41.26 34.3749 40.8763 34.349C40.059 34.2936 39.2332 34.3697 38.4157 34.3166C37.9468 34.2862 37.4872 34.1083 37.0234 33.997C37.0302 33.9191 37.0367 33.8411 37.0433 33.7633Z" fill="#8BA352"/>
<path fill-rule="evenodd" clip-rule="evenodd" d="M62.5495 49.4072C62.5419 51.9023 60.4879 53.9353 57.9899 53.9208C55.505 53.9065 53.4623 51.8286 53.4885 49.3429C53.5148 46.8849 55.5627 44.8604 58.0224 44.8604C60.518 44.8602 62.5569 46.9083 62.5495 49.4072Z" fill="#8BA352"/>
<path fill-rule="evenodd" clip-rule="evenodd" d="M22.4665 44.8604C24.9559 44.8571 27.0144 46.9126 27.0101 49.3975C27.0057 51.8857 24.9454 53.9312 22.4541 53.921C19.9887 53.911 17.96 51.8827 17.9493 49.417C17.9384 46.918 19.9749 44.8638 22.4665 44.8604Z" fill="#8BA352"/>
</g>
<defs>
<clipPath id="clip0_767_166">
<rect width="56" height="56" fill="white" transform="translate(12.25 12)"/>
</clipPath>
</defs>
</svg>
