<svg width="81" height="80" viewBox="0 0 81 80" fill="none" xmlns="http://www.w3.org/2000/svg">
<rect x="0.25" width="80" height="80" rx="8" fill="#F7FFE6"/>
<g clip-path="url(#clip0_767_171)">
<path fill-rule="evenodd" clip-rule="evenodd" d="M52.1996 50.1719C52.1996 50.6436 52.1996 51.0378 52.1996 51.485C53.6597 51.485 55.0944 51.4715 56.5289 51.4892C57.655 51.5031 58.4791 52.0377 58.9366 53.0663C59.0332 53.2833 59.0346 53.6162 58.9388 53.8333C58.484 54.863 57.6601 55.3989 56.535 55.417C55.2779 55.4371 54.0202 55.4218 52.7628 55.4219C52.5851 55.4219 52.4073 55.4219 52.2019 55.4219C52.2019 55.8643 52.2019 56.2585 52.2019 56.7345C52.4604 56.7345 52.7252 56.7345 52.9901 56.7345C53.8283 56.7345 54.6667 56.7331 55.5049 56.7355C55.6869 56.7361 55.8712 56.7336 56.0502 56.7606C57.1002 56.9187 58.2364 57.9749 58.1912 58.742C58.1394 59.6225 56.9212 60.6183 55.8088 60.6643C55.2083 60.6891 54.6063 60.6713 54.0049 60.672C53.4227 60.6725 52.8406 60.672 52.2161 60.672C52.2161 61.0997 52.2161 61.5063 52.2161 61.985C53.074 61.985 53.9422 61.9664 54.8091 61.9896C55.9344 62.0198 56.7516 62.559 57.1983 63.5942C57.2866 63.7988 57.2876 64.1077 57.1983 64.3113C56.7271 65.3878 55.8709 65.9181 54.6998 65.9202C51.8205 65.9254 48.9411 65.9221 46.0616 65.9221C43.2552 65.9221 40.4487 65.9225 37.6423 65.9214C37.4054 65.9212 37.1669 65.9269 36.9323 65.9012C35.701 65.7678 35.5484 65.5954 35.5484 64.3746C35.5484 59.2902 35.5532 54.2055 35.5389 49.1213C35.5379 48.7279 35.6518 48.5038 35.9886 48.2952C36.9945 47.6723 38.1175 47.1463 38.9239 46.3185C39.7281 45.4931 40.1549 44.3129 40.8393 43.354C41.4974 42.4324 41.7499 41.4715 41.6918 40.3448C41.6166 38.8908 41.6697 37.43 41.6752 35.9722C41.6783 35.1722 42.06 34.8402 42.8429 34.9359C45.4873 35.259 46.8521 36.7474 46.9079 39.4589C46.9501 41.4991 46.9211 43.5407 46.9234 45.5818C46.9237 45.7785 46.9235 45.975 46.9235 46.2346C47.16 46.2346 47.3541 46.2346 47.5482 46.2346C50.5186 46.2346 53.489 46.2329 56.4596 46.2358C57.586 46.2368 58.4314 46.7365 58.9063 47.7545C59.0244 48.0079 59.0177 48.413 58.8975 48.6678C58.4283 49.663 57.5974 50.1615 56.4949 50.1695C55.0766 50.1796 53.6584 50.1719 52.1996 50.1719Z" fill="#8BA352"/>
<path fill-rule="evenodd" clip-rule="evenodd" d="M34.2346 56.7473C34.2346 59.6985 34.2355 62.6496 34.2341 65.6008C34.2335 66.7607 33.7668 67.2329 32.6188 67.2336C29.9045 67.2355 27.19 67.2355 24.4757 67.2337C23.3341 67.233 22.8603 66.7537 22.8601 65.6008C22.8592 59.6801 22.859 53.7595 22.8603 47.8391C22.8606 46.7185 23.3384 46.2359 24.4486 46.235C27.1811 46.2329 29.9137 46.2329 32.6462 46.235C33.7564 46.2359 34.2333 46.7181 34.2339 47.8391C34.236 50.8085 34.2346 53.7778 34.2346 56.7473ZM27.2389 63.7668C27.1964 64.4846 27.7661 65.1186 28.4834 65.1518C29.2006 65.1851 29.8263 64.6103 29.8556 63.8911C29.884 63.1964 29.3342 62.5856 28.636 62.5361C27.9207 62.4855 27.2812 63.0488 27.2389 63.7668Z" fill="#8BA352"/>
<path fill-rule="evenodd" clip-rule="evenodd" d="M63.6308 26.7132C63.6308 27.4049 63.6528 28.0977 63.6213 28.7879C63.606 29.1204 63.712 29.3191 63.9757 29.511C65.035 30.283 66.0741 31.0829 67.1293 31.8603C67.6277 32.2275 68.0043 32.6549 67.8845 33.3192C67.762 33.9987 67.2766 34.2947 66.6432 34.4608C65.3772 34.7931 64.1242 35.1743 62.8595 35.5117C62.5253 35.6008 62.3477 35.7586 62.2387 36.0946C61.8244 37.3745 61.3676 38.6405 60.945 39.9177C60.7584 40.4821 60.4388 40.8886 59.8284 40.9795C59.191 41.0743 58.7573 40.7582 58.4201 40.2443C57.7015 39.1482 56.9583 38.0684 56.2504 36.9657C56.0345 36.6292 55.8124 36.4706 55.3849 36.4743C54.056 36.4852 52.7265 36.4241 51.3972 36.4161C50.7976 36.4124 50.3214 36.2262 50.0495 35.6727C49.7638 35.0915 49.947 34.5892 50.3316 34.1118C51.1769 33.0625 51.9997 31.9949 52.8477 30.948C53.0536 30.6937 53.0975 30.4723 52.9948 30.1554C52.5805 28.8756 52.2064 27.5826 51.7977 26.3007C51.6114 25.716 51.6218 25.1797 52.09 24.7392C52.5564 24.3003 53.0866 24.3143 53.6638 24.5372C54.9357 25.028 56.2151 25.5004 57.5031 25.9467C57.6999 26.0148 58.0093 25.9784 58.1807 25.8627C59.3125 25.0996 60.4257 24.3081 61.5346 23.5119C62.0322 23.1545 62.5458 23.001 63.1114 23.3088C63.6556 23.6052 63.8097 24.0981 63.7871 24.6933C63.7616 25.3655 63.7813 26.0396 63.7813 26.7129C63.7308 26.7132 63.6808 26.7132 63.6308 26.7132Z" fill="#8BA352"/>
<path fill-rule="evenodd" clip-rule="evenodd" d="M45.0179 29.9372C44.8812 29.8861 44.5995 29.8113 44.3463 29.6808C43.1659 29.072 41.987 28.4596 40.8223 27.8215C40.499 27.6442 40.2528 27.6305 39.9207 27.8134C38.7575 28.454 37.569 29.0484 36.3994 29.6771C35.8606 29.9669 35.3302 30.0676 34.8106 29.6834C34.3009 29.3068 34.1947 28.7941 34.3137 28.1775C34.5583 26.9092 34.7408 25.6289 34.9867 24.3608C35.0724 23.9188 34.98 23.6218 34.6465 23.3125C33.6988 22.4328 32.7893 21.5122 31.8574 20.6152C31.4375 20.2108 31.1727 19.7629 31.3558 19.1582C31.543 18.54 31.9937 18.2731 32.6078 18.1883C33.9599 18.0013 35.3073 17.7794 36.6609 17.6057C37 17.5623 37.1637 17.4142 37.3021 17.1263C37.8697 15.9459 38.4702 14.7813 39.0322 13.5983C39.3107 13.0118 39.6829 12.5682 40.3746 12.5743C41.0391 12.5798 41.4069 13.0061 41.6776 13.5741C42.2489 14.7727 42.8336 15.9655 43.4487 17.1421C43.5515 17.3387 43.8191 17.5338 44.0376 17.5713C45.4187 17.8083 46.8065 18.0058 48.1937 18.2049C48.7711 18.2877 49.1737 18.5697 49.3561 19.1332C49.5421 19.708 49.3274 20.1626 48.9205 20.5588C47.9543 21.4989 47.007 22.4595 46.0144 23.3708C45.6891 23.6694 45.6696 23.9603 45.7367 24.335C45.977 25.6785 46.213 27.0228 46.4375 28.369C46.5753 29.1979 45.9794 29.9211 45.0179 29.9372Z" fill="#8BA352"/>
<path fill-rule="evenodd" clip-rule="evenodd" d="M16.9419 26.6302C16.9419 25.975 16.9605 25.3191 16.9364 24.665C16.9144 24.0655 17.0892 23.5813 17.6372 23.2959C18.1847 23.0107 18.6859 23.1532 19.1676 23.4976C20.2783 24.2913 21.3903 25.0843 22.5241 25.8443C22.7088 25.9682 23.0384 26.0124 23.2481 25.9399C24.5366 25.4949 25.8135 25.0156 27.0864 24.5267C27.6438 24.3127 28.16 24.3088 28.6147 24.7226C29.0904 25.1552 29.1181 25.6921 28.9334 26.2781C28.5293 27.5613 28.155 28.8541 27.7363 30.1325C27.6248 30.4726 27.6779 30.7038 27.8954 30.972C28.7438 32.0187 29.5661 33.0864 30.41 34.1369C30.7822 34.5999 30.9481 35.0932 30.6844 35.6526C30.4229 36.2075 29.9529 36.4119 29.3497 36.4161C28.0022 36.4257 26.6548 36.4765 25.3073 36.4801C24.9415 36.481 24.7142 36.5857 24.5127 36.9C23.7958 38.0184 23.0422 39.1133 22.3153 40.2253C21.9804 40.7374 21.5574 41.0672 20.9167 40.982C20.277 40.8968 19.9596 40.4708 19.768 39.8875C19.3482 38.6094 18.8947 37.3424 18.4728 36.065C18.3711 35.7574 18.2095 35.5986 17.8876 35.514C16.5693 35.1666 15.261 34.7817 13.9453 34.4239C13.3442 34.2604 12.9329 33.9162 12.8336 33.2901C12.7408 32.7043 13.0327 32.2843 13.4902 31.9456C14.5879 31.1333 15.6875 30.323 16.7611 29.48C16.9374 29.3416 17.0662 29.0448 17.0789 28.8137C17.1193 28.0878 17.0938 27.3583 17.0938 26.6303C17.0432 26.6302 16.9925 26.6302 16.9419 26.6302Z" fill="#8BA352"/>
</g>
<defs>
<clipPath id="clip0_767_171">
<rect width="56" height="56" fill="white" transform="translate(12.25 12)"/>
</clipPath>
</defs>
</svg>
