<svg width="81" height="80" viewBox="0 0 81 80" fill="none" xmlns="http://www.w3.org/2000/svg">
<rect x="0.75" width="80" height="80" rx="8" fill="#F7FFE6"/>
<path d="M33.7513 49.3335C33.0902 49.3335 32.536 49.1099 32.0888 48.6627C31.6416 48.2154 31.418 47.6613 31.418 47.0002V42.3335C32.0791 42.3335 32.6332 42.1099 33.0805 41.6627C33.5277 41.2154 33.7513 40.6613 33.7513 40.0002C33.7513 39.3391 33.5277 38.7849 33.0805 38.3377C32.6332 37.8904 32.0791 37.6668 31.418 37.6668V33.0002C31.418 32.3391 31.6416 31.7849 32.0888 31.3377C32.536 30.8904 33.0902 30.6668 33.7513 30.6668H47.7513C48.4124 30.6668 48.9666 30.8904 49.4138 31.3377C49.861 31.7849 50.0846 32.3391 50.0846 33.0002V37.6668C49.4235 37.6668 48.8694 37.8904 48.4221 38.3377C47.9749 38.7849 47.7513 39.3391 47.7513 40.0002C47.7513 40.6613 47.9749 41.2154 48.4221 41.6627C48.8694 42.1099 49.4235 42.3335 50.0846 42.3335V47.0002C50.0846 47.6613 49.861 48.2154 49.4138 48.6627C48.9666 49.1099 48.4124 49.3335 47.7513 49.3335H33.7513ZM40.7513 45.8335C41.0624 45.8335 41.3346 45.7168 41.568 45.4835C41.8013 45.2502 41.918 44.9779 41.918 44.6668C41.918 44.3557 41.8013 44.0835 41.568 43.8502C41.3346 43.6168 41.0624 43.5002 40.7513 43.5002C40.4402 43.5002 40.168 43.6168 39.9346 43.8502C39.7013 44.0835 39.5846 44.3557 39.5846 44.6668C39.5846 44.9779 39.7013 45.2502 39.9346 45.4835C40.168 45.7168 40.4402 45.8335 40.7513 45.8335ZM40.7513 41.1668C41.0624 41.1668 41.3346 41.0502 41.568 40.8168C41.8013 40.5835 41.918 40.3113 41.918 40.0002C41.918 39.6891 41.8013 39.4168 41.568 39.1835C41.3346 38.9502 41.0624 38.8335 40.7513 38.8335C40.4402 38.8335 40.168 38.9502 39.9346 39.1835C39.7013 39.4168 39.5846 39.6891 39.5846 40.0002C39.5846 40.3113 39.7013 40.5835 39.9346 40.8168C40.168 41.0502 40.4402 41.1668 40.7513 41.1668ZM40.7513 36.5002C41.0624 36.5002 41.3346 36.3835 41.568 36.1502C41.8013 35.9168 41.918 35.6446 41.918 35.3335C41.918 35.0224 41.8013 34.7502 41.568 34.5168C41.3346 34.2835 41.0624 34.1668 40.7513 34.1668C40.4402 34.1668 40.168 34.2835 39.9346 34.5168C39.7013 34.7502 39.5846 35.0224 39.5846 35.3335C39.5846 35.6446 39.7013 35.9168 39.9346 36.1502C40.168 36.3835 40.4402 36.5002 40.7513 36.5002ZM29.0846 65.6668C27.8013 65.6668 26.7027 65.2099 25.7888 64.296C24.8749 63.3821 24.418 62.2835 24.418 61.0002V19.0002C24.418 17.7168 24.8749 16.6182 25.7888 15.7043C26.7027 14.7904 27.8013 14.3335 29.0846 14.3335H52.418C53.7013 14.3335 54.7999 14.7904 55.7138 15.7043C56.6277 16.6182 57.0846 17.7168 57.0846 19.0002V61.0002C57.0846 62.2835 56.6277 63.3821 55.7138 64.296C54.7999 65.2099 53.7013 65.6668 52.418 65.6668H29.0846ZM29.0846 54.0002H52.418V26.0002H29.0846V54.0002Z" fill="#8BA352"/>
</svg>
