<svg width="80" height="80" viewBox="0 0 80 80" fill="none" xmlns="http://www.w3.org/2000/svg">
<rect x="-0.000244141" width="80" height="80" rx="8" fill="#F7FFE6"/>
<mask id="mask0_767_188" style="mask-type:alpha" maskUnits="userSpaceOnUse" x="11" y="12" width="57" height="56">
<rect x="11.9998" y="12" width="56" height="56" fill="#D9D9D9"/>
</mask>
<g mask="url(#mask0_767_188)">
<path d="M40.9332 63.3332L46.0082 58.6665C50.1693 54.7776 52.9304 51.8123 54.2915 49.7707C55.6526 47.729 56.3332 45.5415 56.3332 43.2082C56.3332 42.1971 56.1971 41.2443 55.9248 40.3498C55.6526 39.4554 55.2443 38.5609 54.6998 37.6665H58.6665C59.9498 37.6665 61.0485 38.1235 61.9623 39.0373C62.8762 39.9512 63.3332 41.0498 63.3332 42.3332V63.3332H40.9332ZM16.6665 63.3332V42.3332C16.6665 41.0498 17.1137 39.9512 18.0082 39.0373C18.9026 38.1235 20.0109 37.6665 21.3332 37.6665H25.2415C24.7359 38.4832 24.3471 39.3679 24.0748 40.3207C23.8026 41.2734 23.6665 42.236 23.6665 43.2082C23.6665 45.5415 24.3179 47.729 25.6207 49.7707C26.9234 51.8123 29.6943 54.7776 33.9332 58.6665L39.0665 63.3332H16.6665ZM56.3332 35.3332C54.3498 35.3332 52.6873 34.6623 51.3457 33.3207C50.004 31.979 49.3332 30.3165 49.3332 28.3332C49.3332 26.3887 50.004 24.7359 51.3457 23.3748C52.6873 22.0137 54.3498 21.3332 56.3332 21.3332C58.2776 21.3332 59.9304 22.0137 61.2915 23.3748C62.6526 24.7359 63.3332 26.3887 63.3332 28.3332C63.3332 30.3165 62.6526 31.979 61.2915 33.3207C59.9304 34.6623 58.2776 35.3332 56.3332 35.3332ZM39.9998 32.9998C37.7054 32.9998 35.7707 32.2123 34.1957 30.6373C32.6207 29.0623 31.8332 27.1276 31.8332 24.8332C31.8332 22.5776 32.6207 20.6526 34.1957 19.0582C35.7707 17.4637 37.7054 16.6665 39.9998 16.6665C42.2554 16.6665 44.1804 17.4637 45.7748 19.0582C47.3693 20.6526 48.1665 22.5776 48.1665 24.8332C48.1665 27.1276 47.3693 29.0623 45.7748 30.6373C44.1804 32.2123 42.2554 32.9998 39.9998 32.9998ZM28.3332 43.2082C28.3332 44.8026 29.1109 46.5915 30.6665 48.5748C32.2221 50.5582 35.3137 53.6498 39.9415 57.8498C44.5304 53.7276 47.6318 50.6651 49.2457 48.6623C50.8596 46.6596 51.6665 44.8415 51.6665 43.2082C51.6665 41.6526 51.1415 40.3401 50.0915 39.2707C49.0415 38.2012 47.7776 37.6665 46.2998 37.6665C45.4054 37.6665 44.5693 37.8804 43.7915 38.3082C43.0137 38.736 42.3332 39.261 41.7498 39.8832L39.9415 41.7498L38.1915 39.9415C37.6471 39.3582 37.0248 38.8332 36.3248 38.3665C35.6248 37.8998 34.7498 37.6665 33.6998 37.6665C32.1054 37.6665 30.8123 38.2012 29.8207 39.2707C28.829 40.3401 28.3332 41.6526 28.3332 43.2082ZM23.6665 35.3332C21.6832 35.3332 20.0207 34.6623 18.679 33.3207C17.3373 31.979 16.6665 30.3165 16.6665 28.3332C16.6665 26.3887 17.3373 24.7359 18.679 23.3748C20.0207 22.0137 21.6832 21.3332 23.6665 21.3332C25.6109 21.3332 27.2637 22.0137 28.6248 23.3748C29.9859 24.7359 30.6665 26.3887 30.6665 28.3332C30.6665 30.3165 29.9859 31.979 28.6248 33.3207C27.2637 34.6623 25.6109 35.3332 23.6665 35.3332Z" fill="#8BA352"/>
</g>
</svg>
