<svg width="100" height="100" viewBox="0 0 100 100" fill="none" xmlns="http://www.w3.org/2000/svg">
<rect width="100" height="100" rx="8" fill="#F7FFE6"/>
<path d="M30.2843 70.9997H36.001V66.333C36.001 65.6719 36.2246 65.1177 36.6718 64.6705C37.1191 64.2233 37.6732 63.9997 38.3343 63.9997C38.9954 63.9997 39.5496 64.2233 39.9968 64.6705C40.4441 65.1177 40.6677 65.6719 40.6677 66.333V70.9997H47.6677V66.333C47.6677 65.6719 47.8913 65.1177 48.3385 64.6705C48.7857 64.2233 49.3399 63.9997 50.001 63.9997C50.6621 63.9997 51.2163 64.2233 51.6635 64.6705C52.1107 65.1177 52.3343 65.6719 52.3343 66.333V70.9997H59.3343V66.333C59.3343 65.6719 59.5579 65.1177 60.0052 64.6705C60.4524 64.2233 61.0065 63.9997 61.6677 63.9997C62.3288 63.9997 62.8829 64.2233 63.3302 64.6705C63.7774 65.1177 64.001 65.6719 64.001 66.333V70.9997H69.7177L67.3843 61.6663H32.6177L30.2843 70.9997ZM69.7177 75.6663H30.2843C28.7677 75.6663 27.5427 75.0636 26.6093 73.858C25.676 72.6525 25.4038 71.3108 25.7927 69.833L29.001 56.9997V52.333C29.001 51.0497 29.4579 49.9511 30.3718 49.0372C31.2857 48.1233 32.3843 47.6663 33.6677 47.6663H43.001V31.333C43.001 29.3886 43.6816 27.7358 45.0427 26.3747C46.4038 25.0136 48.0566 24.333 50.001 24.333C51.9454 24.333 53.5982 25.0136 54.9593 26.3747C56.3204 27.7358 57.001 29.3886 57.001 31.333V47.6663H66.3343C67.6177 47.6663 68.7163 48.1233 69.6302 49.0372C70.5441 49.9511 71.001 51.0497 71.001 52.333V56.9997L74.2093 69.833C74.7149 71.3108 74.4913 72.6525 73.5385 73.858C72.5857 75.0636 71.3121 75.6663 69.7177 75.6663Z" fill="#8BA352"/>
</svg>
