<svg width="100" height="100" viewBox="0 0 100 100" fill="none" xmlns="http://www.w3.org/2000/svg">
<rect width="100" height="100" rx="8" fill="#F7FFE6"/>
<path d="M50.0137 62.8333C53.5823 62.8333 56.6111 61.5843 59.1 59.0863C61.5889 56.5882 62.8333 53.5549 62.8333 49.9863C62.8333 46.4177 61.5843 43.3889 59.0863 40.9C56.5882 38.4111 53.5549 37.1667 49.9863 37.1667C46.4177 37.1667 43.3889 38.4157 40.9 40.9137C38.4111 43.4118 37.1667 46.4451 37.1667 50.0137C37.1667 53.5823 38.4157 56.6111 40.9137 59.1C43.4118 61.5889 46.4451 62.8333 50.0137 62.8333ZM50 59.3333C48.8722 59.3333 47.7833 59.1292 46.7333 58.7208C45.6833 58.3125 44.7306 57.7389 43.875 57H56.125C55.2694 57.7389 54.3167 58.3125 53.2667 58.7208C52.2167 59.1292 51.1278 59.3333 50 59.3333ZM41.95 54.6667C41.6389 54.1222 41.3861 53.5583 41.1917 52.975C40.9972 52.3917 40.8611 51.7889 40.7833 51.1667H59.2167C59.1389 51.7889 59.0028 52.3917 58.8083 52.975C58.6139 53.5583 58.3611 54.1222 58.05 54.6667H41.95ZM40.7833 48.8333C40.8611 48.2111 40.9972 47.6083 41.1917 47.025C41.3861 46.4417 41.6389 45.8778 41.95 45.3333H58.05C58.3611 45.8778 58.6139 46.4417 58.8083 47.025C59.0028 47.6083 59.1389 48.2111 59.2167 48.8333H40.7833ZM43.875 43C44.7306 42.2611 45.6833 41.6875 46.7333 41.2792C47.7833 40.8708 48.8722 40.6667 50 40.6667C51.1278 40.6667 52.2167 40.8708 53.2667 41.2792C54.3167 41.6875 55.2694 42.2611 56.125 43H43.875ZM32.5 71C31.5375 71 30.7135 70.6573 30.0281 69.9719C29.3427 69.2865 29 68.4625 29 67.5V32.5C29 31.5375 29.3427 30.7135 30.0281 30.0281C30.7135 29.3427 31.5375 29 32.5 29H67.5C68.4625 29 69.2865 29.3427 69.9719 30.0281C70.6573 30.7135 71 31.5375 71 32.5V67.5C71 68.4625 70.6573 69.2865 69.9719 69.9719C69.2865 70.6573 68.4625 71 67.5 71H32.5Z" fill="#8BA352"/>
</svg>
