<svg width="100" height="100" viewBox="0 0 100 100" fill="none" xmlns="http://www.w3.org/2000/svg">
<rect width="100" height="100" rx="8" fill="#F7FFE6"/>
<path d="M31.332 71V32.5C31.332 31.5375 31.6747 30.7135 32.3602 30.0281C33.0456 29.3427 33.8695 29 34.832 29H65.1654C66.1279 29 66.9518 29.3427 67.6372 30.0281C68.3227 30.7135 68.6654 31.5375 68.6654 32.5V71H65.1654V66.3333H34.832V71H31.332ZM34.832 47.6667H48.2487V32.5H34.832V47.6667ZM51.7487 38.3333H65.1654V32.5H51.7487V38.3333ZM51.7487 47.6667H65.1654V41.8333H51.7487V47.6667ZM45.9154 58.75H54.082V55.25H45.9154V58.75Z" fill="#8BA352"/>
</svg>
