<svg width="100" height="100" viewBox="0 0 100 100" fill="none" xmlns="http://www.w3.org/2000/svg">
<rect width="100" height="100" rx="8" fill="#F7FFE6"/>
<path d="M40.0237 40.0837H43.5237V33.2003H40.0237V40.0837ZM40.0237 61.142H43.5237V49.7087H40.0237V61.142ZM34.832 73.3337C33.8695 73.3337 33.0456 72.991 32.3602 72.3055C31.6747 71.6201 31.332 70.7962 31.332 69.8337V46.617H68.6654V69.8337C68.6654 70.7962 68.3227 71.6201 67.6372 72.3055C66.9518 72.991 66.1279 73.3337 65.1654 73.3337H34.832ZM31.332 43.117V30.167C31.332 29.2045 31.6747 28.3805 32.3602 27.6951C33.0456 27.0097 33.8695 26.667 34.832 26.667H65.1654C66.1279 26.667 66.9518 27.0097 67.6372 27.6951C68.3227 28.3805 68.6654 29.2045 68.6654 30.167V43.117H31.332Z" fill="#8BA352"/>
</svg>
