<svg width="65" height="122" viewBox="0 0 65 122" fill="none" xmlns="http://www.w3.org/2000/svg">
<path d="M48.8449 13.092C47.8201 26.7661 41.9225 39.6185 32.2244 49.3127C22.5262 59.0068 9.67142 64.8991 -4.00309 65.9184C-4.20172 65.9276 -4.40009 65.8953 -4.58553 65.8235C-4.77096 65.7517 -4.93937 65.642 -5.07998 65.5014C-5.22058 65.3608 -5.33029 65.1924 -5.40209 65.007C-5.47389 64.8215 -5.5062 64.6232 -5.49694 64.4245C-4.48579 50.7435 1.40679 37.881 11.1071 28.1806C20.8075 18.4802 33.67 12.5877 47.3511 11.5765C47.5516 11.567 47.7519 11.5998 47.9389 11.6729C48.1259 11.746 48.2954 11.8577 48.4364 12.0007C48.5773 12.1437 48.6866 12.3148 48.757 12.5028C48.8273 12.6908 48.8573 12.8916 48.8449 13.092Z" fill="#C6E9FF"/>
<path d="M34.1848 107.461C34.1972 107.665 34.1666 107.868 34.0952 108.059C34.0237 108.249 33.9128 108.423 33.7699 108.568C33.6269 108.713 33.4551 108.826 33.2654 108.9C33.0758 108.974 32.8727 109.008 32.6693 108.998C22.8304 108.161 13.6039 103.874 6.61961 96.8937C-0.364667 89.9134 -4.65727 80.6893 -5.49991 70.8509C-5.50914 70.6465 -5.47571 70.4425 -5.40172 70.2519C-5.32774 70.0612 -5.21483 69.888 -5.07021 69.7434C-4.92559 69.5988 -4.75242 69.4859 -4.56174 69.4119C-4.37107 69.3379 -4.16707 69.3045 -3.96275 69.3137C5.87077 70.1598 15.0898 74.4506 22.0688 81.4297C29.0479 88.4087 33.3387 97.6277 34.1848 107.461Z" fill="#C6E9FF"/>
</svg>
