<svg width="80" height="80" viewBox="0 0 80 80" fill="none" xmlns="http://www.w3.org/2000/svg">
<rect x="-0.000244141" width="80" height="80" rx="8" fill="#F7FFE6"/>
<mask id="mask0_767_195" style="mask-type:alpha" maskUnits="userSpaceOnUse" x="11" y="12" width="57" height="56">
<rect x="11.9998" y="12" width="56" height="56" fill="#D9D9D9"/>
</mask>
<g mask="url(#mask0_767_195)">
<path d="M30.6664 63.3333C29.3831 63.3333 28.2845 62.8764 27.3706 61.9625C26.4567 61.0486 25.9998 59.95 25.9998 58.6667V48.6333C25.9998 45.7556 26.4081 42.9847 27.2248 40.3208C28.0414 37.6569 29.3248 35.0028 31.0748 32.3583C29.597 32.0083 28.3817 31.2111 27.4289 29.9667C26.4761 28.7222 25.9998 27.3222 25.9998 25.7667V23.3167C25.9998 21.45 26.8067 19.8847 28.4206 18.6208C30.0345 17.3569 31.7164 16.8222 33.4664 17.0167L54.2331 19.0583C54.8942 19.1361 55.4095 19.3986 55.7789 19.8458C56.1484 20.2931 56.3331 20.8083 56.3331 21.3917V28.3333C56.3331 28.9167 56.1289 29.4319 55.7206 29.8792C55.3123 30.3264 54.8164 30.5889 54.2331 30.6667L52.1331 30.9C52.6775 32.8056 53.397 34.5167 54.2914 36.0333C55.1859 37.55 56.2553 38.6389 57.4998 39.3L55.1664 43.3833C53.1053 42.1778 51.5109 40.5153 50.3831 38.3958C49.2553 36.2764 48.3609 33.9139 47.6998 31.3083L45.1331 31.5417C45.4442 33.4861 46.0373 35.45 46.9123 37.4333C47.7873 39.4167 48.672 41.2056 49.5664 42.8C50.2664 44.0444 50.7914 45.3472 51.1414 46.7083C51.4914 48.0694 51.6664 49.45 51.6664 50.85V58.6667C51.6664 59.95 51.2095 61.0486 50.2956 61.9625C49.3817 62.8764 48.2831 63.3333 46.9998 63.3333H30.6664ZM30.6664 23.9V25.7667C30.6664 26.4667 30.9192 27.0306 31.4248 27.4583C31.9303 27.8861 32.5331 28.0611 33.2331 27.9833L51.6664 26.2333V23.4333L33.2331 21.6833C32.5331 21.6056 31.9303 21.7806 31.4248 22.2083C30.9192 22.6361 30.6664 23.2 30.6664 23.9Z" fill="#8BA352"/>
</g>
</svg>
