<svg width="80" height="80" viewBox="0 0 80 80" fill="none" xmlns="http://www.w3.org/2000/svg">
<rect width="80" height="80" rx="8" fill="#F7FFE6"/>
<mask id="mask0_767_191" style="mask-type:alpha" maskUnits="userSpaceOnUse" x="12" y="12" width="56" height="56">
<rect x="12" y="12" width="56" height="56" fill="#D9D9D9"/>
</mask>
<g mask="url(#mask0_767_191)">
<path d="M40.0002 62.1667C36.9279 62.1667 34.0502 61.5833 31.3668 60.4167C28.6835 59.25 26.3404 57.6653 24.3377 55.6625C22.3349 53.6597 20.7502 51.3167 19.5835 48.6333C18.4168 45.95 17.8335 43.0722 17.8335 40C17.8335 36.9278 18.4168 34.05 19.5835 31.3667C20.7502 28.6833 22.3349 26.3403 24.3377 24.3375C26.3404 22.3347 28.6835 20.75 31.3668 19.5833C34.0502 18.4167 36.9279 17.8333 40.0002 17.8333V12L49.3335 21.3333L40.0002 30.6667V24.8333C35.8002 24.8333 32.2224 26.3111 29.2668 29.2667C26.3113 32.2222 24.8335 35.8 24.8335 40C24.8335 42.5667 25.4266 44.9486 26.6127 47.1458C27.7988 49.3431 29.3835 51.1222 31.3668 52.4833C31.9891 51.3944 32.9127 50.4708 34.1377 49.7125C35.3627 48.9542 36.7724 48.4778 38.3668 48.2833C38.2502 47.4667 38.0946 46.65 37.9002 45.8333C37.7057 45.0167 37.4724 44.2583 37.2002 43.5583C36.7724 43.9083 36.3057 44.1806 35.8002 44.375C35.2946 44.5694 34.7502 44.6667 34.1668 44.6667C32.8835 44.6667 31.7849 44.2097 30.871 43.2958C29.9571 42.3819 29.5002 41.2833 29.5002 40V37.6667C29.5002 37.0056 29.3932 36.3833 29.1793 35.8C28.9654 35.2167 28.6835 34.6722 28.3335 34.1667C30.2779 34.1278 32.0085 34.3028 33.5252 34.6917C34.8474 35.0417 36.0529 35.6153 37.1418 36.4125C38.2307 37.2097 38.7946 38.4056 38.8335 40C38.8335 40.35 38.8043 40.6708 38.746 40.9625C38.6877 41.2542 38.5807 41.5556 38.4252 41.8667C37.9196 41.4778 37.4141 41.1278 36.9085 40.8167C36.4029 40.5056 35.8779 40.2333 35.3335 40C35.9946 40.5056 36.7529 41.2833 37.6085 42.3333C38.4641 43.3833 39.2613 44.6278 40.0002 46.0667C40.7779 44.1611 41.7502 42.2847 42.9168 40.4375C44.0835 38.5903 45.4446 36.8889 47.0002 35.3333C46.1057 35.9556 45.2502 36.6167 44.4335 37.3167C43.6168 38.0167 42.8196 38.7556 42.0418 39.5333C41.7696 39.1056 41.5557 38.6292 41.4002 38.1042C41.2446 37.5792 41.1668 37.0444 41.1668 36.5C41.1668 34.8667 41.7307 33.4861 42.8585 32.3583C43.9863 31.2306 45.3668 30.6667 47.0002 30.6667H49.3335C50.2279 30.6667 50.9668 30.55 51.5502 30.3167C52.1335 30.0833 52.6196 29.8111 53.0085 29.5C53.4363 29.15 53.7668 28.7611 54.0002 28.3333C54.1557 30.9389 54.0196 33.2722 53.5918 35.3333C53.2418 37.0833 52.5807 38.6875 51.6085 40.1458C50.6363 41.6042 49.1002 42.3333 47.0002 42.3333C46.4168 42.3333 45.8627 42.2556 45.3377 42.1C44.8127 41.9444 44.3363 41.7306 43.9085 41.4583C43.6363 42.1972 43.3252 43.1792 42.9752 44.4042C42.6252 45.6292 42.3529 46.9417 42.1585 48.3417C43.6363 48.6139 44.9391 49.1194 46.0668 49.8583C47.1946 50.5972 48.0502 51.4722 48.6335 52.4833C50.6168 51.1222 52.2015 49.3528 53.3877 47.175C54.5738 44.9972 55.1668 42.6056 55.1668 40H62.1668C62.1668 43.0722 61.5835 45.95 60.4168 48.6333C59.2502 51.3167 57.6654 53.6597 55.6627 55.6625C53.6599 57.6653 51.3168 59.25 48.6335 60.4167C45.9502 61.5833 43.0724 62.1667 40.0002 62.1667Z" fill="#8BA352"/>
</g>
</svg>
