<svg width="80" height="80" viewBox="0 0 80 80" fill="none" xmlns="http://www.w3.org/2000/svg">
<rect width="80" height="80" rx="8" fill="#F7FFE6"/>
<g clip-path="url(#clip0_767_199)">
<path fill-rule="evenodd" clip-rule="evenodd" d="M51.9497 50.1716C51.9497 50.6433 51.9497 51.0375 51.9497 51.4847C53.4098 51.4847 54.8446 51.4713 56.279 51.489C57.4051 51.5028 58.2292 52.0375 58.6867 53.066C58.7833 53.2831 58.7847 53.6159 58.6889 53.8331C58.2341 54.8628 57.4102 55.3987 56.2851 55.4167C55.028 55.4369 53.7704 55.4216 52.513 55.4217C52.3352 55.4217 52.1574 55.4217 51.952 55.4217C51.952 55.8641 51.952 56.2583 51.952 56.7342C52.2105 56.7342 52.4753 56.7342 52.7402 56.7342C53.5784 56.7342 54.4168 56.7329 55.255 56.7352C55.437 56.7358 55.6214 56.7333 55.8003 56.7603C56.8503 56.9184 57.9865 57.9747 57.9413 58.7417C57.8895 59.6222 56.6713 60.6181 55.5589 60.664C54.9585 60.6888 54.3564 60.671 53.755 60.6718C53.1728 60.6722 52.5907 60.6718 51.9662 60.6718C51.9662 61.0994 51.9662 61.506 51.9662 61.9847C52.8241 61.9847 53.6923 61.9662 54.5593 61.9894C55.6845 62.0196 56.5017 62.5588 56.9485 63.5939C57.0367 63.7985 57.0377 64.1075 56.9485 64.3111C56.4772 65.3876 55.6211 65.9179 54.4499 65.9199C51.5706 65.9252 48.6912 65.9218 45.8117 65.9218C43.0053 65.9218 40.1989 65.9223 37.3924 65.9211C37.1555 65.921 36.9171 65.9267 36.6824 65.901C35.4511 65.7675 35.2986 65.5951 35.2986 64.3744C35.2986 59.29 35.3034 54.2053 35.2891 49.1211C35.288 48.7277 35.402 48.5035 35.7387 48.295C36.7447 47.672 37.8676 47.1461 38.674 46.3182C39.4782 45.4929 39.905 44.3126 40.5895 43.3538C41.2475 42.4322 41.5 41.4713 41.442 40.3446C41.3667 38.8906 41.4198 37.4297 41.4253 35.972C41.4284 35.172 41.8101 34.84 42.593 34.9357C45.2375 35.2587 46.6022 36.7472 46.6581 39.4587C46.7002 41.4989 46.6712 43.5405 46.6735 45.5815C46.6738 45.7783 46.6737 45.9747 46.6737 46.2344C46.9101 46.2344 47.1042 46.2344 47.2983 46.2344C50.2688 46.2344 53.2392 46.2326 56.2097 46.2355C57.3361 46.2365 58.1815 46.7362 58.6564 47.7543C58.7745 48.0076 58.7678 48.4128 58.6476 48.6676C58.1784 49.6627 57.3475 50.1613 56.245 50.1693C54.8268 50.1794 53.4085 50.1716 51.9497 50.1716Z" fill="#8BA352"/>
<path fill-rule="evenodd" clip-rule="evenodd" d="M33.9846 56.7473C33.9846 59.6985 33.9855 62.6496 33.9841 65.6008C33.9835 66.7607 33.5168 67.2329 32.3688 67.2336C29.6545 67.2355 26.94 67.2355 24.2257 67.2337C23.0841 67.233 22.6103 66.7537 22.6101 65.6008C22.6092 59.6801 22.609 53.7595 22.6103 47.8391C22.6106 46.7185 23.0884 46.2359 24.1986 46.235C26.9311 46.2329 29.6637 46.2329 32.3962 46.235C33.5064 46.2359 33.9833 46.7181 33.9839 47.8391C33.986 50.8085 33.9846 53.7778 33.9846 56.7473ZM26.9889 63.7668C26.9464 64.4846 27.5161 65.1186 28.2334 65.1518C28.9506 65.1851 29.5763 64.6103 29.6056 63.8911C29.634 63.1964 29.0842 62.5856 28.386 62.5361C27.6707 62.4855 27.0312 63.0488 26.9889 63.7668Z" fill="#8BA352"/>
<path fill-rule="evenodd" clip-rule="evenodd" d="M63.3808 26.7132C63.3808 27.4049 63.4028 28.0977 63.3713 28.7879C63.356 29.1204 63.462 29.3191 63.7257 29.511C64.785 30.283 65.8241 31.0829 66.8793 31.8603C67.3777 32.2275 67.7543 32.6549 67.6345 33.3192C67.512 33.9987 67.0266 34.2947 66.3932 34.4608C65.1272 34.7931 63.8742 35.1743 62.6095 35.5117C62.2753 35.6008 62.0977 35.7586 61.9887 36.0946C61.5744 37.3745 61.1176 38.6405 60.695 39.9177C60.5084 40.4821 60.1888 40.8886 59.5784 40.9795C58.941 41.0743 58.5073 40.7582 58.1701 40.2443C57.4515 39.1482 56.7083 38.0684 56.0004 36.9657C55.7845 36.6292 55.5624 36.4706 55.1349 36.4743C53.806 36.4852 52.4765 36.4241 51.1472 36.4161C50.5476 36.4124 50.0714 36.2262 49.7995 35.6727C49.5138 35.0915 49.697 34.5892 50.0816 34.1118C50.9269 33.0625 51.7497 31.9949 52.5977 30.948C52.8036 30.6937 52.8475 30.4723 52.7448 30.1554C52.3305 28.8756 51.9564 27.5826 51.5477 26.3007C51.3614 25.716 51.3718 25.1797 51.84 24.7392C52.3064 24.3003 52.8366 24.3143 53.4138 24.5372C54.6857 25.028 55.9651 25.5004 57.2531 25.9467C57.4499 26.0148 57.7593 25.9784 57.9307 25.8627C59.0625 25.0996 60.1757 24.3081 61.2846 23.5119C61.7822 23.1545 62.2958 23.001 62.8614 23.3088C63.4056 23.6052 63.5597 24.0981 63.5371 24.6933C63.5116 25.3655 63.5313 26.0396 63.5313 26.7129C63.4808 26.7132 63.4308 26.7132 63.3808 26.7132Z" fill="#8BA352"/>
<path fill-rule="evenodd" clip-rule="evenodd" d="M44.7679 29.9369C44.6312 29.8859 44.3495 29.8111 44.0963 29.6805C42.9159 29.0717 41.737 28.4593 40.5723 27.8212C40.249 27.644 40.0028 27.6303 39.6707 27.8132C38.5075 28.4538 37.319 29.0481 36.1494 29.6769C35.6106 29.9667 35.0802 30.0673 34.5606 29.6832C34.0509 29.3066 33.9447 28.7939 34.0637 28.1772C34.3083 26.9089 34.4908 25.6286 34.7367 24.3606C34.8224 23.9185 34.73 23.6216 34.3965 23.3122C33.4488 22.4326 32.5393 21.512 31.6074 20.615C31.1875 20.2105 30.9227 19.7626 31.1058 19.1579C31.293 18.5398 31.7437 18.2729 32.3578 18.188C33.7099 18.001 35.0573 17.7792 36.4109 17.6055C36.75 17.562 36.9137 17.414 37.0521 17.1261C37.6197 15.9457 38.2202 14.7811 38.7822 13.5981C39.0607 13.0116 39.4329 12.5679 40.1246 12.574C40.7891 12.5796 41.1569 13.0059 41.4276 13.5738C41.9989 14.7725 42.5836 15.9652 43.1987 17.1418C43.3015 17.3384 43.5691 17.5336 43.7876 17.5711C45.1687 17.8081 46.5565 18.0055 47.9437 18.2046C48.5211 18.2875 48.9237 18.5694 49.1061 19.133C49.2921 19.7078 49.0774 20.1624 48.6705 20.5585C47.7043 21.4987 46.757 22.4593 45.7644 23.3706C45.4391 23.6691 45.4196 23.9601 45.4867 24.3348C45.727 25.6782 45.963 27.0225 46.1875 28.3687C46.3253 29.1976 45.7294 29.9209 44.7679 29.9369Z" fill="#8BA352"/>
<path fill-rule="evenodd" clip-rule="evenodd" d="M16.6919 26.6299C16.6919 25.9748 16.7105 25.3189 16.6864 24.6647C16.6644 24.0653 16.8392 23.5811 17.3872 23.2956C17.9347 23.0105 18.4359 23.153 18.9176 23.4973C20.0283 24.2911 21.1403 25.0841 22.2741 25.8441C22.4588 25.9679 22.7884 26.0121 22.9981 25.9396C24.2866 25.4946 25.5635 25.0154 26.8364 24.5265C27.3938 24.3125 27.91 24.3086 28.3647 24.7223C28.8404 25.1549 28.8681 25.6918 28.6834 26.2778C28.2793 27.5611 27.905 28.8539 27.4863 30.1323C27.3748 30.4724 27.4279 30.7036 27.6454 30.9718C28.4938 32.0184 29.3161 33.0862 30.16 34.1366C30.5322 34.5997 30.6981 35.093 30.4344 35.6523C30.1729 36.2073 29.7029 36.4116 29.0997 36.4158C27.7522 36.4255 26.4048 36.4762 25.0573 36.4799C24.6915 36.4808 24.4642 36.5855 24.2627 36.8998C23.5458 38.0182 22.7922 39.1131 22.0653 40.225C21.7304 40.7371 21.3074 41.0669 20.6667 40.9817C20.027 40.8966 19.7096 40.4705 19.518 39.8873C19.0982 38.6092 18.6447 37.3421 18.2228 36.0648C18.1211 35.7572 17.9595 35.5983 17.6376 35.5138C16.3193 35.1663 15.011 34.7814 13.6953 34.4237C13.0942 34.2602 12.6829 33.9159 12.5836 33.2898C12.4908 32.7041 12.7827 32.284 13.2402 31.9453C14.3379 31.1331 15.4375 30.3228 16.5111 29.4797C16.6874 29.3413 16.8162 29.0445 16.8289 28.8135C16.8693 28.0876 16.8438 27.358 16.8438 26.6301C16.7932 26.6299 16.7425 26.6299 16.6919 26.6299Z" fill="#8BA352"/>
</g>
<defs>
<clipPath id="clip0_767_199">
<rect width="56" height="56" fill="white" transform="translate(12 12)"/>
</clipPath>
</defs>
</svg>
