<svg width="20" height="20" viewBox="0 0 20 20" fill="none" xmlns="http://www.w3.org/2000/svg">
<path d="M4.34066 10.8333H13.649L9.58232 14.8999C9.25732 15.2249 9.25732 15.7583 9.58232 16.0833C9.90732 16.4083 10.4323 16.4083 10.7573 16.0833L16.249 10.5916C16.574 10.2666 16.574 9.74159 16.249 9.41659L10.7657 3.91659C10.61 3.76055 10.3986 3.67285 10.1782 3.67285C9.95773 3.67285 9.74635 3.76055 9.59066 3.91659C9.26566 4.24159 9.26566 4.76659 9.59066 5.09159L13.649 9.16659H4.34066C3.88232 9.16659 3.50732 9.54159 3.50732 9.99992C3.50732 10.4583 3.88232 10.8333 4.34066 10.8333Z" fill="#35A128"/>
<mask id="mask0_751_1528" style="mask-type:alpha" maskUnits="userSpaceOnUse" x="3" y="3" width="14" height="14">
<path d="M4.34066 10.8333H13.649L9.58232 14.8999C9.25732 15.2249 9.25732 15.7583 9.58232 16.0833C9.90732 16.4083 10.4323 16.4083 10.7573 16.0833L16.249 10.5916C16.574 10.2666 16.574 9.74159 16.249 9.41659L10.7657 3.91659C10.61 3.76055 10.3986 3.67285 10.1782 3.67285C9.95773 3.67285 9.74635 3.76055 9.59066 3.91659C9.26566 4.24159 9.26566 4.76659 9.59066 5.09159L13.649 9.16659H4.34066C3.88232 9.16659 3.50732 9.54159 3.50732 9.99992C3.50732 10.4583 3.88232 10.8333 4.34066 10.8333Z" fill="white"/>
</mask>
<g mask="url(#mask0_751_1528)">
</g>
</svg>
