<svg width="71" height="122" viewBox="0 0 71 122" fill="none" xmlns="http://www.w3.org/2000/svg">
<path d="M54.8449 12.1027C53.8201 25.7768 47.9225 38.6292 38.2244 48.3234C28.5262 58.0176 15.6714 63.9099 1.99691 64.9291C1.79828 64.9384 1.59991 64.9061 1.41447 64.8343C1.22904 64.7625 1.06063 64.6528 0.920025 64.5121C0.779415 64.3715 0.669712 64.2031 0.597912 64.0177C0.526112 63.8323 0.493805 63.6339 0.503059 63.4353C1.51421 49.7542 7.40679 36.8917 17.1072 27.1913C26.8075 17.491 39.67 11.5984 53.3511 10.5872C53.5516 10.5777 53.7519 10.6106 53.9389 10.6837C54.1259 10.7568 54.2954 10.8685 54.4364 11.0114C54.5773 11.1544 54.6866 11.3255 54.757 11.5136C54.8274 11.7016 54.8573 11.9023 54.8449 12.1027Z" fill="#B9C892" fill-opacity="0.5"/>
<path d="M40.1848 106.472C40.1972 106.675 40.1666 106.879 40.0952 107.07C40.0237 107.26 39.9128 107.434 39.7699 107.579C39.6269 107.724 39.4551 107.837 39.2654 107.911C39.0758 107.985 38.8727 108.019 38.6693 108.009C28.8304 107.172 19.6039 102.885 12.6196 95.9047C5.63533 88.9244 1.34273 79.7003 0.500092 69.8618C0.49086 69.6575 0.524296 69.4535 0.598282 69.2628C0.672265 69.0722 0.785172 68.899 0.929791 68.7544C1.07441 68.6098 1.24758 68.4969 1.43826 68.4229C1.62893 68.3489 1.83293 68.3154 2.03725 68.3247C11.8708 69.1708 21.0898 73.4616 28.0688 80.4407C35.0479 87.4197 39.3387 96.6387 40.1848 106.472Z" fill="#B9C892" fill-opacity="0.5"/>
</svg>
