<svg width="80" height="80" viewBox="0 0 80 80" fill="none" xmlns="http://www.w3.org/2000/svg">
<rect width="80" height="80" rx="8" fill="#F7FFE6"/>
<mask id="mask0_767_193" style="mask-type:alpha" maskUnits="userSpaceOnUse" x="12" y="12" width="56" height="56">
<rect x="12" y="12" width="56" height="56" fill="#D9D9D9"/>
</mask>
<g mask="url(#mask0_767_193)">
<path d="M44.0835 51.6665C44.8613 51.6665 45.6196 51.5109 46.3585 51.1998C47.0974 50.8887 47.7391 50.4609 48.2835 49.9165L50.5585 47.6415L48.1085 45.1915L45.8335 47.4665C45.6002 47.6998 45.3279 47.8651 45.0168 47.9623C44.7057 48.0596 44.3946 48.1082 44.0835 48.1082C43.7724 48.1082 43.4613 48.0596 43.1502 47.9623C42.8391 47.8651 42.5668 47.6998 42.3335 47.4665L40.1168 45.2498C39.5724 44.7054 38.9307 44.2873 38.1918 43.9957C37.4529 43.704 36.6946 43.5582 35.9168 43.5582C35.1391 43.5582 34.3807 43.704 33.6418 43.9957C32.9029 44.2873 32.2613 44.7054 31.7168 45.2498L29.4418 47.5248L31.8918 49.9748L34.1668 47.6998C34.4002 47.4665 34.6724 47.3012 34.9835 47.204C35.2946 47.1068 35.6057 47.0582 35.9168 47.0582C36.2279 47.0582 36.5391 47.1068 36.8502 47.204C37.1613 47.3012 37.4335 47.4665 37.6668 47.6998L39.8835 49.9165C40.4279 50.4609 41.0696 50.8887 41.8085 51.1998C42.5474 51.5109 43.3057 51.6665 44.0835 51.6665ZM44.0835 44.6665C44.8613 44.6665 45.6196 44.5109 46.3585 44.1998C47.0974 43.8887 47.7391 43.4609 48.2835 42.9165L50.5585 40.6415L48.1085 38.1915L45.8335 40.4665C45.6002 40.6998 45.3279 40.8651 45.0168 40.9623C44.7057 41.0596 44.3946 41.1082 44.0835 41.1082C43.7724 41.1082 43.4613 41.0596 43.1502 40.9623C42.8391 40.8651 42.5668 40.6998 42.3335 40.4665L40.1168 38.2498C39.5724 37.7054 38.9307 37.2873 38.1918 36.9957C37.4529 36.704 36.6946 36.5582 35.9168 36.5582C35.1391 36.5582 34.3807 36.704 33.6418 36.9957C32.9029 37.2873 32.2613 37.7054 31.7168 38.2498L29.4418 40.5248L31.8918 42.9748L34.1668 40.6998C34.4002 40.4665 34.6724 40.3012 34.9835 40.204C35.2946 40.1068 35.6057 40.0582 35.9168 40.0582C36.2279 40.0582 36.5391 40.1068 36.8502 40.204C37.1613 40.3012 37.4335 40.4665 37.6668 40.6998L39.8835 42.9165C40.4279 43.4609 41.0696 43.8887 41.8085 44.1998C42.5474 44.5109 43.3057 44.6665 44.0835 44.6665ZM44.0835 37.6665C44.8613 37.6665 45.6196 37.5109 46.3585 37.1998C47.0974 36.8887 47.7391 36.4609 48.2835 35.9165L50.5585 33.6415L48.1085 31.1915L45.8335 33.4665C45.6002 33.6998 45.3279 33.8651 45.0168 33.9623C44.7057 34.0596 44.3946 34.1082 44.0835 34.1082C43.7724 34.1082 43.4613 34.0596 43.1502 33.9623C42.8391 33.8651 42.5668 33.6998 42.3335 33.4665L40.1168 31.2498C39.5724 30.7054 38.9307 30.2873 38.1918 29.9957C37.4529 29.704 36.6946 29.5582 35.9168 29.5582C35.1391 29.5582 34.3807 29.704 33.6418 29.9957C32.9029 30.2873 32.2613 30.7054 31.7168 31.2498L29.4418 33.5248L31.8918 35.9748L34.1668 33.6998C34.4002 33.4665 34.6724 33.3012 34.9835 33.204C35.2946 33.1068 35.6057 33.0582 35.9168 33.0582C36.2279 33.0582 36.5391 33.1068 36.8502 33.204C37.1613 33.3012 37.4335 33.4665 37.6668 33.6998L39.8835 35.9165C40.4279 36.4609 41.0696 36.8887 41.8085 37.1998C42.5474 37.5109 43.3057 37.6665 44.0835 37.6665ZM21.3335 58.6665V30.6665L40.0002 16.6665L58.6668 30.6665V58.6665H21.3335Z" fill="#8BA352"/>
</g>
</svg>
