<svg width="81" height="80" viewBox="0 0 81 80" fill="none" xmlns="http://www.w3.org/2000/svg">
<rect x="0.75" width="80" height="80" rx="8" fill="#F7FFE6"/>
<path fill-rule="evenodd" clip-rule="evenodd" d="M16.25 49.0819C16.3402 48.2763 16.4186 47.4692 16.5229 46.6656C16.8575 44.0861 17.225 41.5107 17.536 38.9284C17.8761 36.1035 18.1804 33.2744 18.4754 30.4445C18.6354 28.908 19.8211 27.7605 21.3488 27.7289C22.815 27.6984 24.1267 28.7694 24.2687 30.2671C24.4558 32.2415 24.5286 34.2268 24.6493 36.2075C24.7165 37.3082 24.7813 38.4092 24.8474 39.5101C24.8972 39.5515 24.9471 39.5929 24.9969 39.6344C25.1039 39.4786 25.1896 39.3014 25.321 39.1701C30.0251 34.4621 34.7373 29.7623 39.4362 25.0493C40.1038 24.3795 40.8585 24.0739 41.7747 24.3252C43.2726 24.7362 43.8529 26.5587 42.8919 27.7821C42.7519 27.9605 42.5868 28.1201 42.426 28.281C39.9648 30.7443 37.4985 33.2027 35.0422 35.6709C34.1714 36.546 34.473 37.8755 35.6054 38.1917C36.2374 38.3681 36.7367 38.1207 37.1831 37.6721C39.5363 35.308 41.8983 32.9524 44.2572 30.5938C45.0973 29.754 45.9336 28.9104 46.7779 28.075C47.7314 27.1319 49.0696 27.0939 49.9619 27.9758C50.8572 28.8604 50.8489 30.2078 49.9011 31.16C46.7101 34.3664 43.5088 37.5627 40.3054 40.7566C39.9168 41.1441 39.6413 41.5689 39.7188 42.1341C39.7974 42.7084 40.1074 43.1266 40.6656 43.3306C41.2012 43.5262 41.69 43.4224 42.1273 43.0689C42.2532 42.9672 42.3623 42.8443 42.4773 42.7293C44.9513 40.2559 47.4261 37.7828 49.8985 35.3076C50.5576 34.648 51.3367 34.4285 52.2209 34.7172C53.0916 35.0013 53.5833 35.6406 53.7032 36.5398C53.8082 37.3265 53.4769 37.9552 52.9274 38.5021C50.5866 40.8329 48.2536 43.1713 45.9178 45.507C45.7338 45.6911 45.5465 45.8724 45.3667 46.0603C44.7364 46.7186 44.7222 47.6093 45.3296 48.1952C45.9172 48.7621 46.808 48.7466 47.4306 48.128C49.2778 46.2934 51.1189 44.4524 52.9538 42.6056C53.5621 41.9933 54.271 41.7089 55.1206 41.9018C56.5016 42.2153 57.2216 43.6945 56.6132 45.0007C56.4464 45.3589 56.1797 45.6901 55.8978 45.9728C51.0706 50.8106 46.2264 55.6318 41.4022 60.4724C38.8498 63.0335 35.8119 64.5583 32.2037 64.9214C32.0926 64.9326 31.9844 64.9729 31.8749 64.9996C31.1262 64.9996 30.3774 64.9996 29.6288 64.9996C29.5198 64.9724 29.4122 64.931 29.3017 64.9202C26.9462 64.6906 24.7557 63.9593 22.7892 62.6474C19.9218 60.7344 17.7507 58.2476 16.7809 54.8702C16.5146 53.943 16.4223 52.9657 16.25 52.0115C16.25 51.035 16.25 50.0584 16.25 49.0819Z" fill="#8BA352"/>
<path fill-rule="evenodd" clip-rule="evenodd" d="M66.2506 40.1951C66.1277 40.9115 66.0424 41.6367 65.8741 42.3423C65.4658 44.0555 64.6384 45.5584 63.413 46.8191C61.916 48.359 60.401 49.8826 58.8595 51.3782C57.2175 52.9714 55.2148 53.5695 52.9554 53.3671C52.879 53.3602 52.8044 53.3346 52.7288 53.3175C52.6726 53.2497 52.6163 53.1821 52.5599 53.1142C52.721 53.0364 52.9182 52.9949 53.0381 52.8758C54.8273 51.0982 56.6431 49.3452 58.3787 47.5163C60.652 45.1207 60.0391 41.2312 57.1803 39.5918C56.8452 39.3996 56.4829 39.255 56.1337 39.0886C57.4918 36.0828 56.036 32.8852 53.0384 31.8504C53.9635 29.5626 53.7015 27.4624 51.8449 25.7544C50.1619 24.2063 48.1948 24.0673 46.1653 24.904C45.8301 24.3388 45.5578 23.7415 45.1638 23.2398C43.3423 20.9211 39.8992 20.6004 37.7648 22.6333C35.2677 25.0118 32.8654 27.4901 30.4273 29.9305C30.3054 30.0524 30.2331 30.2239 30.0705 30.3199C29.8482 29.3569 29.9471 28.4805 30.1711 27.6153C30.4874 26.3932 31.0848 25.3224 31.9742 24.4258C33.4412 22.9473 34.8998 21.4596 36.3963 20.0114C40.303 16.2306 46.9521 16.2478 50.8202 20.0736C54.9386 24.1473 59.0244 28.2543 63.1108 32.3602C64.9331 34.1913 65.9691 36.402 66.1717 38.9899C66.1829 39.1324 66.2237 39.2726 66.2506 39.4139C66.2506 39.6744 66.2506 39.9348 66.2506 40.1951Z" fill="#8BA352"/>
<path fill-rule="evenodd" clip-rule="evenodd" d="M66.2483 19.7852C65.6731 21.1471 64.443 20.8224 63.3184 20.8661C63.3184 21.3517 63.3247 21.8021 63.3171 22.2524C63.302 23.1481 62.6673 23.8003 61.8318 23.7874C61.0151 23.7749 60.4047 23.131 60.3906 22.2575C60.3832 21.8068 60.3893 21.356 60.3893 20.8592C59.8916 20.8592 59.4405 20.8655 58.9898 20.8578C58.0985 20.8425 57.4456 20.2017 57.4611 19.3667C57.4762 18.5524 58.1225 17.9445 58.9959 17.9311C59.4341 17.9244 59.8726 17.9299 60.3699 17.9299C60.4449 16.8428 60.0769 15.5744 61.4632 15C61.7236 15 61.984 15 62.2445 15C63.6205 15.5749 63.2749 16.8264 63.3283 17.9255C64.456 17.9625 65.6747 17.6468 66.2483 19.0039C66.2483 19.2644 66.2483 19.5248 66.2483 19.7852Z" fill="#8BA352"/>
<path fill-rule="evenodd" clip-rule="evenodd" d="M52.5764 64.9999C51.2139 64.4251 51.5403 63.1945 51.4954 62.07C51.0103 62.07 50.5599 62.0761 50.1097 62.0688C49.2156 62.0544 48.5628 61.4198 48.5742 60.5847C48.5853 59.7708 49.2319 59.1562 50.1016 59.1422C50.5525 59.1346 51.0036 59.1407 51.5025 59.1407C51.5025 58.6454 51.4967 58.1947 51.5038 57.7442C51.5174 56.8704 52.1258 56.2263 52.9422 56.2121C53.7781 56.1978 54.415 56.8489 54.4304 57.7432C54.4381 58.1938 54.4317 58.6447 54.4317 59.1406C54.9299 59.1406 55.3809 59.1345 55.8317 59.142C56.7063 59.1561 57.3479 59.7656 57.3597 60.5839C57.3716 61.4212 56.7212 62.054 55.8247 62.0687C55.3865 62.0759 54.9482 62.0699 54.4511 62.0699C54.3771 63.1576 54.741 64.4242 53.3577 64.9998C53.0973 64.9999 52.8369 64.9999 52.5764 64.9999Z" fill="#8BA352"/>
<path fill-rule="evenodd" clip-rule="evenodd" d="M16.25 21.934C16.6394 21.0898 17.3073 20.8328 18.2153 20.8457C20.9788 20.8847 23.7433 20.8549 26.5073 20.8622C27.627 20.8652 28.3517 21.8593 27.9596 22.8455C27.7196 23.4491 27.2501 23.781 26.605 23.7835C23.6459 23.7948 20.6867 23.7898 17.7276 23.7878C16.9793 23.7873 16.5632 23.3197 16.25 22.7152C16.25 22.4548 16.25 22.1944 16.25 21.934Z" fill="#8BA352"/>
<path fill-rule="evenodd" clip-rule="evenodd" d="M32.8504 15C32.9148 15.0415 32.9764 15.0887 33.0443 15.1238C33.705 15.4654 34.0435 16.1195 33.8911 16.7658C33.7252 17.4696 33.1615 17.9234 32.404 17.9269C30.6002 17.935 28.7964 17.9296 26.9925 17.9298C25.9688 17.9298 24.9449 17.9306 23.9212 17.9295C22.9982 17.9285 22.4162 17.525 22.2382 16.7661C22.0758 16.0738 22.4244 15.4751 23.2221 15.0718C23.2471 15.059 23.2611 15.0245 23.2802 15.0003C26.4702 15 29.6603 15 32.8504 15Z" fill="#8BA352"/>
</svg>
