<svg width="80" height="80" viewBox="0 0 80 80" fill="none" xmlns="http://www.w3.org/2000/svg">
<rect width="80" height="80" rx="8" fill="#F7FFE6"/>
<mask id="mask0_767_184" style="mask-type:alpha" maskUnits="userSpaceOnUse" x="12" y="12" width="56" height="56">
<rect x="12" y="12" width="56" height="56" fill="#D9D9D9"/>
</mask>
<g mask="url(#mask0_767_184)">
<path d="M58.6667 37.6667C58.0056 37.6667 57.4514 37.4431 57.0042 36.9958C56.557 36.5486 56.3334 35.9944 56.3334 35.3333C56.3334 34.6722 56.557 34.1181 57.0042 33.6708C57.4514 33.2236 58.0056 33 58.6667 33C59.3278 33 59.882 33.2236 60.3292 33.6708C60.7764 34.1181 61 34.6722 61 35.3333C61 35.9944 60.7764 36.5486 60.3292 36.9958C59.882 37.4431 59.3278 37.6667 58.6667 37.6667ZM56.3334 30.6667V19H61V30.6667H56.3334ZM33 40C30.4334 40 28.2362 39.0861 26.4084 37.2583C24.5806 35.4306 23.6667 33.2333 23.6667 30.6667C23.6667 28.1 24.5806 25.9028 26.4084 24.075C28.2362 22.2472 30.4334 21.3333 33 21.3333C35.5667 21.3333 37.7639 22.2472 39.5917 24.075C41.4195 25.9028 42.3334 28.1 42.3334 30.6667C42.3334 33.2333 41.4195 35.4306 39.5917 37.2583C37.7639 39.0861 35.5667 40 33 40ZM14.3334 58.6667V52.1333C14.3334 50.8111 14.6737 49.5958 15.3542 48.4875C16.0348 47.3792 16.9389 46.5333 18.0667 45.95C20.4778 44.7444 22.9278 43.8403 25.4167 43.2375C27.9056 42.6347 30.4334 42.3333 33 42.3333C35.5667 42.3333 38.0945 42.6347 40.5834 43.2375C43.0723 43.8403 45.5223 44.7444 47.9334 45.95C49.0612 46.5333 49.9653 47.3792 50.6459 48.4875C51.3264 49.5958 51.6667 50.8111 51.6667 52.1333V58.6667H14.3334Z" fill="#8BA352"/>
</g>
</svg>
