<svg width="80" height="80" viewBox="0 0 80 80" fill="none" xmlns="http://www.w3.org/2000/svg">
<rect width="80" height="80" rx="8" fill="#F7FFE6"/>
<mask id="mask0_767_197" style="mask-type:alpha" maskUnits="userSpaceOnUse" x="12" y="12" width="56" height="56">
<rect x="12" y="12" width="56" height="56" fill="#D9D9D9"/>
</mask>
<g mask="url(#mask0_767_197)">
<path d="M33.4668 33.4667L38.6585 24.8917L35.2168 19.1751C34.7502 18.3973 34.0793 18.0084 33.2043 18.0084C32.3293 18.0084 31.6585 18.3973 31.1918 19.1751L25.4752 28.6834L33.4668 33.4667ZM56.0418 49.3334L50.8502 40.7001L58.9585 36.0334L62.6918 42.2751C63.1196 42.9362 63.3529 43.6751 63.3918 44.4917C63.4307 45.3084 63.2557 46.0667 62.8668 46.7667C62.4779 47.5445 61.9043 48.1667 61.146 48.6334C60.3877 49.1001 59.5613 49.3334 58.6668 49.3334H56.0418ZM49.3335 65.6667L40.0002 56.3334L49.3335 47.0001V51.6667H60.4168L57.0335 58.4334C56.6057 59.2112 56.0224 59.8334 55.2835 60.3001C54.5446 60.7667 53.7279 61.0001 52.8335 61.0001H49.3335V65.6667ZM26.7585 61.0001C25.9807 61.0001 25.271 60.7959 24.6293 60.3876C23.9877 59.9792 23.5113 59.4445 23.2002 58.7834C22.8891 58.1612 22.7432 57.5098 22.7627 56.8292C22.7821 56.1487 22.9668 55.5167 23.3168 54.9334L25.3002 51.6667H35.3335V61.0001H26.7585ZM20.9835 54.3501L17.1918 46.7667C16.8418 46.0667 16.6766 45.3181 16.696 44.5209C16.7154 43.7237 16.9391 42.9751 17.3668 42.2751L18.3002 40.7001L14.3335 38.3084L27.1085 35.1001L30.3168 47.9334L26.2918 45.4834L20.9835 54.3501ZM52.4835 34.4001L39.7085 31.1917L43.7335 28.8001L36.4418 16.6667H44.6668C45.4835 16.6667 46.2516 16.8709 46.971 17.2792C47.6904 17.6876 48.2641 18.2417 48.6918 18.9417L51.7252 24.0167L55.6918 21.5667L52.4835 34.4001Z" fill="#8BA352"/>
</g>
</svg>
