<svg width="80" height="80" viewBox="0 0 80 80" fill="none" xmlns="http://www.w3.org/2000/svg">
<rect width="80" height="80" rx="8" fill="#F7FFE6"/>
<path d="M40.2628 31.19C44.1813 31.19 47.3578 28.0135 47.3578 24.095C47.3578 20.1765 44.1813 17 40.2628 17C36.3443 17 33.1678 20.1765 33.1678 24.095C33.1678 28.0135 36.3443 31.19 40.2628 31.19Z" fill="#8BA352"/>
<path d="M52.0023 40.8884C52.0023 37.3154 49.7054 34.3039 46.5407 33.1809C44.7542 34.4059 42.6104 35.1206 40.2624 35.1206C37.9144 35.1206 35.7706 34.4059 33.9841 33.1809C30.8194 34.3549 28.5225 37.3154 28.5225 40.8884V44.9209C28.5225 45.7376 29.186 46.4011 30.0027 46.4011H50.5221C51.3388 46.4011 52.0023 45.7376 52.0023 44.9209V40.8884Z" fill="#8BA352"/>
<path d="M64.151 55.8444C64.9167 55.1808 64.5083 53.9047 63.4874 53.8026L60.4759 53.4453C60.2207 53.3943 59.9655 53.2412 59.8634 52.9859L58.6383 50.2296C58.23 49.3108 56.9029 49.3108 56.4945 50.2296L55.2695 52.9859C55.1674 53.2412 54.9122 53.3943 54.657 53.4453L51.6454 53.8026C50.6245 53.9047 50.2672 55.1298 50.9818 55.8444L53.2278 57.8861C53.4319 58.0903 53.534 58.3455 53.483 58.6007L52.8704 61.5612C52.6663 62.531 53.7382 63.2967 54.6059 62.8373L57.2091 61.357C57.4643 61.2039 57.7196 61.2039 57.9748 61.357L60.578 62.8373C61.4457 63.3477 62.5176 62.5821 62.3134 61.5612L61.7009 58.6007C61.6499 58.3455 61.752 58.0392 61.9561 57.8861L64.151 55.8444Z" fill="#8BA352"/>
<path d="M46.1834 53.8026L43.1719 53.4453C42.9167 53.3943 42.6615 53.2412 42.5594 52.9859L41.3343 50.2296C40.926 49.3108 39.5989 49.3108 39.1905 50.2296L37.9655 52.9859C37.8634 53.2412 37.6082 53.3943 37.353 53.4453L34.3414 53.8026C33.3205 53.9047 32.9632 55.1298 33.6778 55.8444L35.9237 57.8861C36.1279 58.0903 36.23 58.3455 36.179 58.6007L35.5664 61.5612C35.3623 62.531 36.4342 63.2967 37.3019 62.8373L39.9051 61.357C40.1603 61.2039 40.4156 61.2039 40.6708 61.357L43.274 62.8373C44.1417 63.3477 45.2136 62.5821 45.0094 61.5612L44.3969 58.6007C44.3459 58.3455 44.448 58.0392 44.6521 57.8861L46.898 55.8444C47.5616 55.1808 47.2043 53.9558 46.1834 53.8026Z" fill="#8BA352"/>
<path d="M28.8797 53.8026L25.8681 53.4453C25.6129 53.3943 25.3577 53.2412 25.2556 52.9859L24.0306 50.2296C23.6222 49.3108 22.2951 49.3108 21.8868 50.2296L20.6617 52.9859C20.5596 53.2412 20.3044 53.3943 20.0492 53.4453L17.0376 53.8026C16.0168 53.9047 15.6595 55.1298 16.3741 55.8444L18.62 57.8861C18.8242 58.0392 18.9262 58.3455 18.8752 58.6007L18.2627 61.5612C18.0585 62.531 19.1304 63.2967 19.9982 62.8373L22.6014 61.357C22.8566 61.2039 23.1118 61.2039 23.367 61.357L25.9702 62.8373C26.838 63.3477 27.9099 62.5821 27.7057 61.5612L27.0932 58.6007C27.0421 58.3455 27.1442 58.0392 27.3484 57.8861L29.5943 55.8444C30.3089 55.1808 29.9005 53.9558 28.8797 53.8026Z" fill="#8BA352"/>
</svg>
